<mxfile host="app.diagrams.net" modified="2022-10-07T11:51:44.284Z" agent="5.0 (Macintosh; Intel Mac OS X 10_15_7) AppleWebKit/605.1.15 (KHTML, like Gecko) Version/15.3 Safari/605.1.15" etag="moDK5mADrSf6AlV8cUvB" version="20.4.0" type="github" pages="2">
  <diagram id="PwqvZyXJtDJ_hez2ZE6o" name="Page-1">
    <mxGraphModel dx="946" dy="488" grid="1" gridSize="10" guides="1" tooltips="1" connect="1" arrows="1" fold="1" page="1" pageScale="1" pageWidth="850" pageHeight="1100" math="0" shadow="0">
      <root>
        <mxCell id="0" />
        <mxCell id="1" parent="0" />
        <mxCell id="WN8s_Z6m0qRJgajy0mQE-16" value="" style="endArrow=classic;html=1;rounded=0;" edge="1" parent="1">
          <mxGeometry width="50" height="50" relative="1" as="geometry">
            <mxPoint x="80" y="520" as="sourcePoint" />
            <mxPoint x="800" y="520" as="targetPoint" />
          </mxGeometry>
        </mxCell>
        <mxCell id="WN8s_Z6m0qRJgajy0mQE-18" value="" style="endArrow=classic;html=1;rounded=0;" edge="1" parent="1">
          <mxGeometry width="50" height="50" relative="1" as="geometry">
            <mxPoint x="80" y="520" as="sourcePoint" />
            <mxPoint x="80" y="120" as="targetPoint" />
          </mxGeometry>
        </mxCell>
        <mxCell id="WN8s_Z6m0qRJgajy0mQE-21" value="Temperature" style="text;html=1;strokeColor=none;fillColor=none;align=center;verticalAlign=middle;whiteSpace=wrap;rounded=0;" vertex="1" parent="1">
          <mxGeometry x="740" y="535" width="60" height="30" as="geometry" />
        </mxCell>
        <mxCell id="WN8s_Z6m0qRJgajy0mQE-22" value="Count" style="text;html=1;strokeColor=none;fillColor=none;align=center;verticalAlign=middle;whiteSpace=wrap;rounded=0;" vertex="1" parent="1">
          <mxGeometry x="10" y="140" width="60" height="30" as="geometry" />
        </mxCell>
        <mxCell id="WN8s_Z6m0qRJgajy0mQE-23" value="" style="endArrow=none;dashed=1;html=1;dashPattern=1 3;strokeWidth=2;rounded=0;" edge="1" parent="1">
          <mxGeometry width="50" height="50" relative="1" as="geometry">
            <mxPoint x="40" y="320" as="sourcePoint" />
            <mxPoint x="810" y="320" as="targetPoint" />
          </mxGeometry>
        </mxCell>
        <mxCell id="UK97uRtWa8wtMsmGyaBe-1" value="" style="rounded=1;whiteSpace=wrap;html=1;" vertex="1" parent="1">
          <mxGeometry x="760" y="60" width="130" height="40" as="geometry" />
        </mxCell>
        <mxCell id="UK97uRtWa8wtMsmGyaBe-2" value="&lt;font style=&quot;font-size: 18px;&quot;&gt;Temp Low&lt;/font&gt;" style="text;html=1;strokeColor=none;fillColor=none;align=center;verticalAlign=middle;whiteSpace=wrap;rounded=0;" vertex="1" parent="1">
          <mxGeometry x="760" y="65" width="130" height="30" as="geometry" />
        </mxCell>
        <mxCell id="UK97uRtWa8wtMsmGyaBe-3" value="" style="rounded=1;whiteSpace=wrap;html=1;" vertex="1" parent="1">
          <mxGeometry x="760" y="110" width="130" height="40" as="geometry" />
        </mxCell>
        <mxCell id="UK97uRtWa8wtMsmGyaBe-4" value="&lt;font style=&quot;font-size: 18px;&quot;&gt;Temp High&lt;/font&gt;" style="text;html=1;strokeColor=none;fillColor=none;align=center;verticalAlign=middle;whiteSpace=wrap;rounded=0;" vertex="1" parent="1">
          <mxGeometry x="760" y="115" width="130" height="30" as="geometry" />
        </mxCell>
        <mxCell id="UK97uRtWa8wtMsmGyaBe-5" value="" style="rounded=1;whiteSpace=wrap;html=1;" vertex="1" parent="1">
          <mxGeometry x="760" y="160" width="130" height="40" as="geometry" />
        </mxCell>
        <mxCell id="UK97uRtWa8wtMsmGyaBe-6" value="&lt;font style=&quot;font-size: 18px;&quot;&gt;Temp Min&lt;/font&gt;" style="text;html=1;strokeColor=none;fillColor=none;align=center;verticalAlign=middle;whiteSpace=wrap;rounded=0;" vertex="1" parent="1">
          <mxGeometry x="760" y="165" width="130" height="30" as="geometry" />
        </mxCell>
        <mxCell id="UK97uRtWa8wtMsmGyaBe-7" value="" style="rounded=1;whiteSpace=wrap;html=1;" vertex="1" parent="1">
          <mxGeometry x="760" y="210" width="130" height="40" as="geometry" />
        </mxCell>
        <mxCell id="UK97uRtWa8wtMsmGyaBe-8" value="&lt;font style=&quot;font-size: 18px;&quot;&gt;Temp Max&lt;/font&gt;" style="text;html=1;strokeColor=none;fillColor=none;align=center;verticalAlign=middle;whiteSpace=wrap;rounded=0;" vertex="1" parent="1">
          <mxGeometry x="760" y="215" width="130" height="30" as="geometry" />
        </mxCell>
      </root>
    </mxGraphModel>
  </diagram>
  <diagram id="QgNvOGbIc9eQISZwVJHy" name="Page-2">
    <mxGraphModel dx="946" dy="488" grid="1" gridSize="10" guides="1" tooltips="1" connect="1" arrows="1" fold="1" page="1" pageScale="1" pageWidth="850" pageHeight="1100" math="0" shadow="0">
      <root>
        <mxCell id="0" />
        <mxCell id="1" parent="0" />
        <UserObject label="%temperatureLow_temperatureHigh_temperatureMin_temperatureMax%" temperatureLow_temperatureHigh_temperatureMin_temperatureMax="12.23	18.39	6.17	18.39" placeholders="1" id="sMgRlcVJ20DVUm7yUbX1-1">
          <mxCell style="whiteSpace=wrap;html=1;" vertex="1" parent="1">
            <mxGeometry x="20" y="20" width="150" height="30" as="geometry" />
          </mxCell>
        </UserObject>
        <UserObject label="%temperatureLow_temperatureHigh_temperatureMin_temperatureMax%" temperatureLow_temperatureHigh_temperatureMin_temperatureMax="12.65	25.79	12.23	25.79" placeholders="1" id="sMgRlcVJ20DVUm7yUbX1-2">
          <mxCell style="whiteSpace=wrap;html=1;" vertex="1" parent="1">
            <mxGeometry x="20" y="90" width="150" height="30" as="geometry" />
          </mxCell>
        </UserObject>
        <UserObject label="%temperatureLow_temperatureHigh_temperatureMin_temperatureMax%" temperatureLow_temperatureHigh_temperatureMin_temperatureMax="23.46	28.32	12.65	28.32" placeholders="1" id="sMgRlcVJ20DVUm7yUbX1-3">
          <mxCell style="whiteSpace=wrap;html=1;" vertex="1" parent="1">
            <mxGeometry x="20" y="160" width="150" height="30" as="geometry" />
          </mxCell>
        </UserObject>
        <UserObject label="%temperatureLow_temperatureHigh_temperatureMin_temperatureMax%" temperatureLow_temperatureHigh_temperatureMin_temperatureMax="8.86	24.09	19.8	26.62" placeholders="1" id="sMgRlcVJ20DVUm7yUbX1-4">
          <mxCell style="whiteSpace=wrap;html=1;" vertex="1" parent="1">
            <mxGeometry x="20" y="230" width="140" height="30" as="geometry" />
          </mxCell>
        </UserObject>
        <UserObject label="%temperatureLow_temperatureHigh_temperatureMin_temperatureMax%" temperatureLow_temperatureHigh_temperatureMin_temperatureMax="7.4	15.36	8.86	18.65" placeholders="1" id="sMgRlcVJ20DVUm7yUbX1-5">
          <mxCell style="whiteSpace=wrap;html=1;" vertex="1" parent="1">
            <mxGeometry x="20" y="300" width="130" height="30" as="geometry" />
          </mxCell>
        </UserObject>
        <UserObject label="%temperatureLow_temperatureHigh_temperatureMin_temperatureMax%" temperatureLow_temperatureHigh_temperatureMin_temperatureMax="3.68	13.02	6.62	13.02" placeholders="1" id="sMgRlcVJ20DVUm7yUbX1-6">
          <mxCell style="whiteSpace=wrap;html=1;" vertex="1" parent="1">
            <mxGeometry x="20" y="370" width="140" height="30" as="geometry" />
          </mxCell>
        </UserObject>
        <UserObject label="%temperatureLow_temperatureHigh_temperatureMin_temperatureMax%" temperatureLow_temperatureHigh_temperatureMin_temperatureMax="16.73	18.24	3.68	18.24" placeholders="1" id="sMgRlcVJ20DVUm7yUbX1-7">
          <mxCell style="whiteSpace=wrap;html=1;" vertex="1" parent="1">
            <mxGeometry x="20" y="440" width="150" height="30" as="geometry" />
          </mxCell>
        </UserObject>
        <UserObject label="%temperatureLow_temperatureHigh_temperatureMin_temperatureMax%" temperatureLow_temperatureHigh_temperatureMin_temperatureMax="28.08	29.76	16.91	30.19" placeholders="1" id="sMgRlcVJ20DVUm7yUbX1-8">
          <mxCell style="whiteSpace=wrap;html=1;" vertex="1" parent="1">
            <mxGeometry x="20" y="510" width="150" height="30" as="geometry" />
          </mxCell>
        </UserObject>
        <UserObject label="%temperatureLow_temperatureHigh_temperatureMin_temperatureMax%" temperatureLow_temperatureHigh_temperatureMin_temperatureMax="22.68	43.07	28.08	43.07" placeholders="1" id="sMgRlcVJ20DVUm7yUbX1-9">
          <mxCell style="whiteSpace=wrap;html=1;" vertex="1" parent="1">
            <mxGeometry x="20" y="580" width="150" height="30" as="geometry" />
          </mxCell>
        </UserObject>
        <UserObject label="%temperatureLow_temperatureHigh_temperatureMin_temperatureMax%" temperatureLow_temperatureHigh_temperatureMin_temperatureMax="35.36	39.43	22.68	39.43" placeholders="1" id="sMgRlcVJ20DVUm7yUbX1-10">
          <mxCell style="whiteSpace=wrap;html=1;" vertex="1" parent="1">
            <mxGeometry x="20" y="650" width="150" height="30" as="geometry" />
          </mxCell>
        </UserObject>
        <UserObject label="%temperatureLow_temperatureHigh_temperatureMin_temperatureMax%" temperatureLow_temperatureHigh_temperatureMin_temperatureMax="42.16	49.72	35.36	49.72" placeholders="1" id="sMgRlcVJ20DVUm7yUbX1-11">
          <mxCell style="whiteSpace=wrap;html=1;" vertex="1" parent="1">
            <mxGeometry x="20" y="720" width="150" height="30" as="geometry" />
          </mxCell>
        </UserObject>
        <UserObject label="%temperatureLow_temperatureHigh_temperatureMin_temperatureMax%" temperatureLow_temperatureHigh_temperatureMin_temperatureMax="34.65	60.45	43.58	60.45" placeholders="1" id="sMgRlcVJ20DVUm7yUbX1-12">
          <mxCell style="whiteSpace=wrap;html=1;" vertex="1" parent="1">
            <mxGeometry x="20" y="790" width="150" height="30" as="geometry" />
          </mxCell>
        </UserObject>
        <UserObject label="%temperatureLow_temperatureHigh_temperatureMin_temperatureMax%" temperatureLow_temperatureHigh_temperatureMin_temperatureMax="14.31	41.94	19.39	56.91" placeholders="1" id="sMgRlcVJ20DVUm7yUbX1-13">
          <mxCell style="whiteSpace=wrap;html=1;" vertex="1" parent="1">
            <mxGeometry x="20" y="860" width="150" height="30" as="geometry" />
          </mxCell>
        </UserObject>
        <UserObject label="%temperatureLow_temperatureHigh_temperatureMin_temperatureMax%" temperatureLow_temperatureHigh_temperatureMin_temperatureMax="15.49	24.71	14.31	24.71" placeholders="1" id="sMgRlcVJ20DVUm7yUbX1-14">
          <mxCell style="whiteSpace=wrap;html=1;" vertex="1" parent="1">
            <mxGeometry x="20" y="930" width="150" height="30" as="geometry" />
          </mxCell>
        </UserObject>
        <UserObject label="%temperatureLow_temperatureHigh_temperatureMin_temperatureMax%" temperatureLow_temperatureHigh_temperatureMin_temperatureMax="22.88	29.56	15.49	29.56" placeholders="1" id="sMgRlcVJ20DVUm7yUbX1-15">
          <mxCell style="whiteSpace=wrap;html=1;" vertex="1" parent="1">
            <mxGeometry x="20" y="1000" width="150" height="30" as="geometry" />
          </mxCell>
        </UserObject>
        <UserObject label="%temperatureLow_temperatureHigh_temperatureMin_temperatureMax%" temperatureLow_temperatureHigh_temperatureMin_temperatureMax="32.84	35.26	22.91	35.26" placeholders="1" id="sMgRlcVJ20DVUm7yUbX1-16">
          <mxCell style="whiteSpace=wrap;html=1;" vertex="1" parent="1">
            <mxGeometry x="20" y="1070" width="150" height="30" as="geometry" />
          </mxCell>
        </UserObject>
        <UserObject label="%temperatureLow_temperatureHigh_temperatureMin_temperatureMax%" temperatureLow_temperatureHigh_temperatureMin_temperatureMax="17.63	34.08	22.08	34.57" placeholders="1" id="sMgRlcVJ20DVUm7yUbX1-17">
          <mxCell style="whiteSpace=wrap;html=1;" vertex="1" parent="1">
            <mxGeometry x="20" y="1140" width="150" height="30" as="geometry" />
          </mxCell>
        </UserObject>
        <UserObject label="%temperatureLow_temperatureHigh_temperatureMin_temperatureMax%" temperatureLow_temperatureHigh_temperatureMin_temperatureMax="21.11	31.84	17.63	31.84" placeholders="1" id="sMgRlcVJ20DVUm7yUbX1-18">
          <mxCell style="whiteSpace=wrap;html=1;" vertex="1" parent="1">
            <mxGeometry x="20" y="1210" width="150" height="30" as="geometry" />
          </mxCell>
        </UserObject>
        <UserObject label="%temperatureLow_temperatureHigh_temperatureMin_temperatureMax%" temperatureLow_temperatureHigh_temperatureMin_temperatureMax="32.26	37.48	21.11	37.48" placeholders="1" id="sMgRlcVJ20DVUm7yUbX1-19">
          <mxCell style="whiteSpace=wrap;html=1;" vertex="1" parent="1">
            <mxGeometry x="20" y="1280" width="150" height="30" as="geometry" />
          </mxCell>
        </UserObject>
        <UserObject label="%temperatureLow_temperatureHigh_temperatureMin_temperatureMax%" temperatureLow_temperatureHigh_temperatureMin_temperatureMax="33.57	50.89	33.05	50.89" placeholders="1" id="sMgRlcVJ20DVUm7yUbX1-20">
          <mxCell style="whiteSpace=wrap;html=1;" vertex="1" parent="1">
            <mxGeometry x="20" y="1350" width="150" height="30" as="geometry" />
          </mxCell>
        </UserObject>
        <UserObject label="%temperatureLow_temperatureHigh_temperatureMin_temperatureMax%" temperatureLow_temperatureHigh_temperatureMin_temperatureMax="40.14	50.08	33.57	50.08" placeholders="1" id="sMgRlcVJ20DVUm7yUbX1-21">
          <mxCell style="whiteSpace=wrap;html=1;" vertex="1" parent="1">
            <mxGeometry x="20" y="1420" width="150" height="30" as="geometry" />
          </mxCell>
        </UserObject>
        <UserObject label="%temperatureLow_temperatureHigh_temperatureMin_temperatureMax%" temperatureLow_temperatureHigh_temperatureMin_temperatureMax="39.19	47.98	39.33	47.98" placeholders="1" id="sMgRlcVJ20DVUm7yUbX1-22">
          <mxCell style="whiteSpace=wrap;html=1;" vertex="1" parent="1">
            <mxGeometry x="20" y="1490" width="150" height="30" as="geometry" />
          </mxCell>
        </UserObject>
        <UserObject label="%temperatureLow_temperatureHigh_temperatureMin_temperatureMax%" temperatureLow_temperatureHigh_temperatureMin_temperatureMax="40.71	58.21	39.19	58.21" placeholders="1" id="sMgRlcVJ20DVUm7yUbX1-23">
          <mxCell style="whiteSpace=wrap;html=1;" vertex="1" parent="1">
            <mxGeometry x="20" y="1560" width="150" height="30" as="geometry" />
          </mxCell>
        </UserObject>
        <UserObject label="%temperatureLow_temperatureHigh_temperatureMin_temperatureMax%" temperatureLow_temperatureHigh_temperatureMin_temperatureMax="22.81	41.48	27.59	42.83" placeholders="1" id="sMgRlcVJ20DVUm7yUbX1-24">
          <mxCell style="whiteSpace=wrap;html=1;" vertex="1" parent="1">
            <mxGeometry x="20" y="1630" width="150" height="30" as="geometry" />
          </mxCell>
        </UserObject>
        <UserObject label="%temperatureLow_temperatureHigh_temperatureMin_temperatureMax%" temperatureLow_temperatureHigh_temperatureMin_temperatureMax="21.68	34.21	22.81	34.21" placeholders="1" id="sMgRlcVJ20DVUm7yUbX1-25">
          <mxCell style="whiteSpace=wrap;html=1;" vertex="1" parent="1">
            <mxGeometry x="20" y="1700" width="150" height="30" as="geometry" />
          </mxCell>
        </UserObject>
        <UserObject label="%temperatureLow_temperatureHigh_temperatureMin_temperatureMax%" temperatureLow_temperatureHigh_temperatureMin_temperatureMax="28.94	37.98	21.68	37.98" placeholders="1" id="sMgRlcVJ20DVUm7yUbX1-26">
          <mxCell style="whiteSpace=wrap;html=1;" vertex="1" parent="1">
            <mxGeometry x="20" y="1770" width="150" height="30" as="geometry" />
          </mxCell>
        </UserObject>
        <UserObject label="%temperatureLow_temperatureHigh_temperatureMin_temperatureMax%" temperatureLow_temperatureHigh_temperatureMin_temperatureMax="47.23	53.32	28.94	53.32" placeholders="1" id="sMgRlcVJ20DVUm7yUbX1-27">
          <mxCell style="whiteSpace=wrap;html=1;" vertex="1" parent="1">
            <mxGeometry x="20" y="1840" width="150" height="30" as="geometry" />
          </mxCell>
        </UserObject>
        <UserObject label="%temperatureLow_temperatureHigh_temperatureMin_temperatureMax%" temperatureLow_temperatureHigh_temperatureMin_temperatureMax="38.38	49.2	42.13	51.81" placeholders="1" id="sMgRlcVJ20DVUm7yUbX1-28">
          <mxCell style="whiteSpace=wrap;html=1;" vertex="1" parent="1">
            <mxGeometry x="20" y="1910" width="150" height="30" as="geometry" />
          </mxCell>
        </UserObject>
        <UserObject label="%temperatureLow_temperatureHigh_temperatureMin_temperatureMax%" temperatureLow_temperatureHigh_temperatureMin_temperatureMax="30.27	43.24	36.91	43.24" placeholders="1" id="sMgRlcVJ20DVUm7yUbX1-29">
          <mxCell style="whiteSpace=wrap;html=1;" vertex="1" parent="1">
            <mxGeometry x="20" y="1980" width="150" height="30" as="geometry" />
          </mxCell>
        </UserObject>
        <UserObject label="%temperatureLow_temperatureHigh_temperatureMin_temperatureMax%" temperatureLow_temperatureHigh_temperatureMin_temperatureMax="17.44	35.45	24.52	35.45" placeholders="1" id="sMgRlcVJ20DVUm7yUbX1-30">
          <mxCell style="whiteSpace=wrap;html=1;" vertex="1" parent="1">
            <mxGeometry x="20" y="2050" width="150" height="30" as="geometry" />
          </mxCell>
        </UserObject>
        <UserObject label="%temperatureLow_temperatureHigh_temperatureMin_temperatureMax%" temperatureLow_temperatureHigh_temperatureMin_temperatureMax="30.56	32	17.44	32" placeholders="1" id="sMgRlcVJ20DVUm7yUbX1-31">
          <mxCell style="whiteSpace=wrap;html=1;" vertex="1" parent="1">
            <mxGeometry x="20" y="2120" width="120" height="30" as="geometry" />
          </mxCell>
        </UserObject>
        <UserObject label="%temperatureLow_temperatureHigh_temperatureMin_temperatureMax%" temperatureLow_temperatureHigh_temperatureMin_temperatureMax="27.57	43.36	30.86	43.36" placeholders="1" id="sMgRlcVJ20DVUm7yUbX1-32">
          <mxCell style="whiteSpace=wrap;html=1;" vertex="1" parent="1">
            <mxGeometry x="20" y="2190" width="150" height="30" as="geometry" />
          </mxCell>
        </UserObject>
        <UserObject label="%temperatureLow_temperatureHigh_temperatureMin_temperatureMax%" temperatureLow_temperatureHigh_temperatureMin_temperatureMax="15.27	29.2	16.41	38.06" placeholders="1" id="sMgRlcVJ20DVUm7yUbX1-33">
          <mxCell style="whiteSpace=wrap;html=1;" vertex="1" parent="1">
            <mxGeometry x="20" y="2260" width="150" height="30" as="geometry" />
          </mxCell>
        </UserObject>
        <UserObject label="%temperatureLow_temperatureHigh_temperatureMin_temperatureMax%" temperatureLow_temperatureHigh_temperatureMin_temperatureMax="28.1	30.4	15.27	30.4" placeholders="1" id="sMgRlcVJ20DVUm7yUbX1-34">
          <mxCell style="whiteSpace=wrap;html=1;" vertex="1" parent="1">
            <mxGeometry x="20" y="2330" width="130" height="30" as="geometry" />
          </mxCell>
        </UserObject>
        <UserObject label="%temperatureLow_temperatureHigh_temperatureMin_temperatureMax%" temperatureLow_temperatureHigh_temperatureMin_temperatureMax="35.83	39.73	28.92	40.58" placeholders="1" id="sMgRlcVJ20DVUm7yUbX1-35">
          <mxCell style="whiteSpace=wrap;html=1;" vertex="1" parent="1">
            <mxGeometry x="20" y="2400" width="150" height="30" as="geometry" />
          </mxCell>
        </UserObject>
        <UserObject label="%temperatureLow_temperatureHigh_temperatureMin_temperatureMax%" temperatureLow_temperatureHigh_temperatureMin_temperatureMax="22.77	36.46	23.53	39.42" placeholders="1" id="sMgRlcVJ20DVUm7yUbX1-36">
          <mxCell style="whiteSpace=wrap;html=1;" vertex="1" parent="1">
            <mxGeometry x="20" y="2470" width="150" height="30" as="geometry" />
          </mxCell>
        </UserObject>
        <UserObject label="%temperatureLow_temperatureHigh_temperatureMin_temperatureMax%" temperatureLow_temperatureHigh_temperatureMin_temperatureMax="27.27	36.33	22.77	36.33" placeholders="1" id="sMgRlcVJ20DVUm7yUbX1-37">
          <mxCell style="whiteSpace=wrap;html=1;" vertex="1" parent="1">
            <mxGeometry x="20" y="2540" width="150" height="30" as="geometry" />
          </mxCell>
        </UserObject>
        <UserObject label="%temperatureLow_temperatureHigh_temperatureMin_temperatureMax%" temperatureLow_temperatureHigh_temperatureMin_temperatureMax="25.09	40.57	27.27	40.57" placeholders="1" id="sMgRlcVJ20DVUm7yUbX1-38">
          <mxCell style="whiteSpace=wrap;html=1;" vertex="1" parent="1">
            <mxGeometry x="20" y="2610" width="150" height="30" as="geometry" />
          </mxCell>
        </UserObject>
        <UserObject label="%temperatureLow_temperatureHigh_temperatureMin_temperatureMax%" temperatureLow_temperatureHigh_temperatureMin_temperatureMax="21.95	31.58	25.09	32.55" placeholders="1" id="sMgRlcVJ20DVUm7yUbX1-39">
          <mxCell style="whiteSpace=wrap;html=1;" vertex="1" parent="1">
            <mxGeometry x="20" y="2680" width="150" height="30" as="geometry" />
          </mxCell>
        </UserObject>
        <UserObject label="%temperatureLow_temperatureHigh_temperatureMin_temperatureMax%" temperatureLow_temperatureHigh_temperatureMin_temperatureMax="34.32	33.95	21.95	34.95" placeholders="1" id="sMgRlcVJ20DVUm7yUbX1-40">
          <mxCell style="whiteSpace=wrap;html=1;" vertex="1" parent="1">
            <mxGeometry x="20" y="2750" width="150" height="30" as="geometry" />
          </mxCell>
        </UserObject>
        <UserObject label="%temperatureLow_temperatureHigh_temperatureMin_temperatureMax%" temperatureLow_temperatureHigh_temperatureMin_temperatureMax="42.85	45.59	34.65	45.59" placeholders="1" id="sMgRlcVJ20DVUm7yUbX1-41">
          <mxCell style="whiteSpace=wrap;html=1;" vertex="1" parent="1">
            <mxGeometry x="20" y="2820" width="150" height="30" as="geometry" />
          </mxCell>
        </UserObject>
        <UserObject label="%temperatureLow_temperatureHigh_temperatureMin_temperatureMax%" temperatureLow_temperatureHigh_temperatureMin_temperatureMax="40.94	51.92	43.35	52.27" placeholders="1" id="sMgRlcVJ20DVUm7yUbX1-42">
          <mxCell style="whiteSpace=wrap;html=1;" vertex="1" parent="1">
            <mxGeometry x="20" y="2890" width="150" height="30" as="geometry" />
          </mxCell>
        </UserObject>
        <UserObject label="%temperatureLow_temperatureHigh_temperatureMin_temperatureMax%" temperatureLow_temperatureHigh_temperatureMin_temperatureMax="25.32	43.84	32.8	57.85" placeholders="1" id="sMgRlcVJ20DVUm7yUbX1-43">
          <mxCell style="whiteSpace=wrap;html=1;" vertex="1" parent="1">
            <mxGeometry x="20" y="2960" width="150" height="30" as="geometry" />
          </mxCell>
        </UserObject>
        <UserObject label="%temperatureLow_temperatureHigh_temperatureMin_temperatureMax%" temperatureLow_temperatureHigh_temperatureMin_temperatureMax="31.67	36.41	25.32	36.41" placeholders="1" id="sMgRlcVJ20DVUm7yUbX1-44">
          <mxCell style="whiteSpace=wrap;html=1;" vertex="1" parent="1">
            <mxGeometry x="20" y="3030" width="150" height="30" as="geometry" />
          </mxCell>
        </UserObject>
        <UserObject label="%temperatureLow_temperatureHigh_temperatureMin_temperatureMax%" temperatureLow_temperatureHigh_temperatureMin_temperatureMax="43.62	51.55	32.78	51.55" placeholders="1" id="sMgRlcVJ20DVUm7yUbX1-45">
          <mxCell style="whiteSpace=wrap;html=1;" vertex="1" parent="1">
            <mxGeometry x="20" y="3100" width="150" height="30" as="geometry" />
          </mxCell>
        </UserObject>
        <UserObject label="%temperatureLow_temperatureHigh_temperatureMin_temperatureMax%" temperatureLow_temperatureHigh_temperatureMin_temperatureMax="52.5	57.89	43.62	57.89" placeholders="1" id="sMgRlcVJ20DVUm7yUbX1-46">
          <mxCell style="whiteSpace=wrap;html=1;" vertex="1" parent="1">
            <mxGeometry x="20" y="3170" width="150" height="30" as="geometry" />
          </mxCell>
        </UserObject>
        <UserObject label="%temperatureLow_temperatureHigh_temperatureMin_temperatureMax%" temperatureLow_temperatureHigh_temperatureMin_temperatureMax="27.16	57.45	36.45	57.45" placeholders="1" id="sMgRlcVJ20DVUm7yUbX1-47">
          <mxCell style="whiteSpace=wrap;html=1;" vertex="1" parent="1">
            <mxGeometry x="20" y="3240" width="150" height="30" as="geometry" />
          </mxCell>
        </UserObject>
        <UserObject label="%temperatureLow_temperatureHigh_temperatureMin_temperatureMax%" temperatureLow_temperatureHigh_temperatureMin_temperatureMax="32.64	37.94	27.16	37.94" placeholders="1" id="sMgRlcVJ20DVUm7yUbX1-48">
          <mxCell style="whiteSpace=wrap;html=1;" vertex="1" parent="1">
            <mxGeometry x="20" y="3310" width="150" height="30" as="geometry" />
          </mxCell>
        </UserObject>
        <UserObject label="%temperatureLow_temperatureHigh_temperatureMin_temperatureMax%" temperatureLow_temperatureHigh_temperatureMin_temperatureMax="30.15	44.13	31.82	44.13" placeholders="1" id="sMgRlcVJ20DVUm7yUbX1-49">
          <mxCell style="whiteSpace=wrap;html=1;" vertex="1" parent="1">
            <mxGeometry x="20" y="3380" width="150" height="30" as="geometry" />
          </mxCell>
        </UserObject>
        <UserObject label="%temperatureLow_temperatureHigh_temperatureMin_temperatureMax%" temperatureLow_temperatureHigh_temperatureMin_temperatureMax="44.04	47.03	30.15	47.03" placeholders="1" id="sMgRlcVJ20DVUm7yUbX1-50">
          <mxCell style="whiteSpace=wrap;html=1;" vertex="1" parent="1">
            <mxGeometry x="20" y="3450" width="150" height="30" as="geometry" />
          </mxCell>
        </UserObject>
        <UserObject label="%temperatureLow_temperatureHigh_temperatureMin_temperatureMax%" temperatureLow_temperatureHigh_temperatureMin_temperatureMax="54.81	66.65	44.2	66.65" placeholders="1" id="sMgRlcVJ20DVUm7yUbX1-51">
          <mxCell style="whiteSpace=wrap;html=1;" vertex="1" parent="1">
            <mxGeometry x="20" y="3520" width="150" height="30" as="geometry" />
          </mxCell>
        </UserObject>
        <UserObject label="%temperatureLow_temperatureHigh_temperatureMin_temperatureMax%" temperatureLow_temperatureHigh_temperatureMin_temperatureMax="44.31	77.96	54.81	77.96" placeholders="1" id="sMgRlcVJ20DVUm7yUbX1-52">
          <mxCell style="whiteSpace=wrap;html=1;" vertex="1" parent="1">
            <mxGeometry x="20" y="3590" width="150" height="30" as="geometry" />
          </mxCell>
        </UserObject>
        <UserObject label="%temperatureLow_temperatureHigh_temperatureMin_temperatureMax%" temperatureLow_temperatureHigh_temperatureMin_temperatureMax="36.12	45.18	37.14	56.96" placeholders="1" id="sMgRlcVJ20DVUm7yUbX1-53">
          <mxCell style="whiteSpace=wrap;html=1;" vertex="1" parent="1">
            <mxGeometry x="20" y="3660" width="150" height="30" as="geometry" />
          </mxCell>
        </UserObject>
        <UserObject label="%temperatureLow_temperatureHigh_temperatureMin_temperatureMax%" temperatureLow_temperatureHigh_temperatureMin_temperatureMax="39.05	38.88	36.12	40.06" placeholders="1" id="sMgRlcVJ20DVUm7yUbX1-54">
          <mxCell style="whiteSpace=wrap;html=1;" vertex="1" parent="1">
            <mxGeometry x="20" y="3730" width="150" height="30" as="geometry" />
          </mxCell>
        </UserObject>
        <UserObject label="%temperatureLow_temperatureHigh_temperatureMin_temperatureMax%" temperatureLow_temperatureHigh_temperatureMin_temperatureMax="41.05	52.88	40.85	52.88" placeholders="1" id="sMgRlcVJ20DVUm7yUbX1-55">
          <mxCell style="whiteSpace=wrap;html=1;" vertex="1" parent="1">
            <mxGeometry x="20" y="3800" width="150" height="30" as="geometry" />
          </mxCell>
        </UserObject>
        <UserObject label="%temperatureLow_temperatureHigh_temperatureMin_temperatureMax%" temperatureLow_temperatureHigh_temperatureMin_temperatureMax="41.53	42.81	41.05	42.89" placeholders="1" id="sMgRlcVJ20DVUm7yUbX1-56">
          <mxCell style="whiteSpace=wrap;html=1;" vertex="1" parent="1">
            <mxGeometry x="20" y="3870" width="150" height="30" as="geometry" />
          </mxCell>
        </UserObject>
        <UserObject label="%temperatureLow_temperatureHigh_temperatureMin_temperatureMax%" temperatureLow_temperatureHigh_temperatureMin_temperatureMax="35.26	51.4	39.41	51.4" placeholders="1" id="sMgRlcVJ20DVUm7yUbX1-57">
          <mxCell style="whiteSpace=wrap;html=1;" vertex="1" parent="1">
            <mxGeometry x="20" y="3940" width="140" height="30" as="geometry" />
          </mxCell>
        </UserObject>
        <UserObject label="%temperatureLow_temperatureHigh_temperatureMin_temperatureMax%" temperatureLow_temperatureHigh_temperatureMin_temperatureMax="37.57	55.86	35.26	55.86" placeholders="1" id="sMgRlcVJ20DVUm7yUbX1-58">
          <mxCell style="whiteSpace=wrap;html=1;" vertex="1" parent="1">
            <mxGeometry x="20" y="4010" width="150" height="30" as="geometry" />
          </mxCell>
        </UserObject>
        <UserObject label="%temperatureLow_temperatureHigh_temperatureMin_temperatureMax%" temperatureLow_temperatureHigh_temperatureMin_temperatureMax="43.21	60.27	37.57	60.27" placeholders="1" id="sMgRlcVJ20DVUm7yUbX1-59">
          <mxCell style="whiteSpace=wrap;html=1;" vertex="1" parent="1">
            <mxGeometry x="20" y="4080" width="150" height="30" as="geometry" />
          </mxCell>
        </UserObject>
        <UserObject label="%temperatureLow_temperatureHigh_temperatureMin_temperatureMax%" temperatureLow_temperatureHigh_temperatureMin_temperatureMax="36.44	58.91	43.21	58.91" placeholders="1" id="sMgRlcVJ20DVUm7yUbX1-60">
          <mxCell style="whiteSpace=wrap;html=1;" vertex="1" parent="1">
            <mxGeometry x="20" y="4150" width="150" height="30" as="geometry" />
          </mxCell>
        </UserObject>
        <UserObject label="%temperatureLow_temperatureHigh_temperatureMin_temperatureMax%" temperatureLow_temperatureHigh_temperatureMin_temperatureMax="34.92	37.64	34	44.12" placeholders="1" id="sMgRlcVJ20DVUm7yUbX1-61">
          <mxCell style="whiteSpace=wrap;html=1;" vertex="1" parent="1">
            <mxGeometry x="20" y="4220" width="140" height="30" as="geometry" />
          </mxCell>
        </UserObject>
        <UserObject label="%temperatureLow_temperatureHigh_temperatureMin_temperatureMax%" temperatureLow_temperatureHigh_temperatureMin_temperatureMax="38.91	45.01	35.87	45.01" placeholders="1" id="sMgRlcVJ20DVUm7yUbX1-62">
          <mxCell style="whiteSpace=wrap;html=1;" vertex="1" parent="1">
            <mxGeometry x="20" y="4290" width="150" height="30" as="geometry" />
          </mxCell>
        </UserObject>
        <UserObject label="%temperatureLow_temperatureHigh_temperatureMin_temperatureMax%" temperatureLow_temperatureHigh_temperatureMin_temperatureMax="32.52	42.53	33.44	42.53" placeholders="1" id="sMgRlcVJ20DVUm7yUbX1-63">
          <mxCell style="whiteSpace=wrap;html=1;" vertex="1" parent="1">
            <mxGeometry x="20" y="4360" width="150" height="30" as="geometry" />
          </mxCell>
        </UserObject>
        <UserObject label="%temperatureLow_temperatureHigh_temperatureMin_temperatureMax%" temperatureLow_temperatureHigh_temperatureMin_temperatureMax="30.28	41.61	32.52	41.61" placeholders="1" id="sMgRlcVJ20DVUm7yUbX1-64">
          <mxCell style="whiteSpace=wrap;html=1;" vertex="1" parent="1">
            <mxGeometry x="20" y="4430" width="150" height="30" as="geometry" />
          </mxCell>
        </UserObject>
        <UserObject label="%temperatureLow_temperatureHigh_temperatureMin_temperatureMax%" temperatureLow_temperatureHigh_temperatureMin_temperatureMax="33.53	45.76	30.28	45.76" placeholders="1" id="sMgRlcVJ20DVUm7yUbX1-65">
          <mxCell style="whiteSpace=wrap;html=1;" vertex="1" parent="1">
            <mxGeometry x="20" y="4500" width="150" height="30" as="geometry" />
          </mxCell>
        </UserObject>
        <UserObject label="%temperatureLow_temperatureHigh_temperatureMin_temperatureMax%" temperatureLow_temperatureHigh_temperatureMin_temperatureMax="32.14	35.63	32.88	38.19" placeholders="1" id="sMgRlcVJ20DVUm7yUbX1-66">
          <mxCell style="whiteSpace=wrap;html=1;" vertex="1" parent="1">
            <mxGeometry x="20" y="4570" width="150" height="30" as="geometry" />
          </mxCell>
        </UserObject>
        <UserObject label="%temperatureLow_temperatureHigh_temperatureMin_temperatureMax%" temperatureLow_temperatureHigh_temperatureMin_temperatureMax="29.34	39.15	32.14	39.15" placeholders="1" id="sMgRlcVJ20DVUm7yUbX1-67">
          <mxCell style="whiteSpace=wrap;html=1;" vertex="1" parent="1">
            <mxGeometry x="20" y="4640" width="150" height="30" as="geometry" />
          </mxCell>
        </UserObject>
        <UserObject label="%temperatureLow_temperatureHigh_temperatureMin_temperatureMax%" temperatureLow_temperatureHigh_temperatureMin_temperatureMax="30.66	41.42	29.34	41.42" placeholders="1" id="sMgRlcVJ20DVUm7yUbX1-68">
          <mxCell style="whiteSpace=wrap;html=1;" vertex="1" parent="1">
            <mxGeometry x="20" y="4710" width="150" height="30" as="geometry" />
          </mxCell>
        </UserObject>
        <UserObject label="%temperatureLow_temperatureHigh_temperatureMin_temperatureMax%" temperatureLow_temperatureHigh_temperatureMin_temperatureMax="30.53	39.13	30.66	39.13" placeholders="1" id="sMgRlcVJ20DVUm7yUbX1-69">
          <mxCell style="whiteSpace=wrap;html=1;" vertex="1" parent="1">
            <mxGeometry x="20" y="4780" width="150" height="30" as="geometry" />
          </mxCell>
        </UserObject>
        <UserObject label="%temperatureLow_temperatureHigh_temperatureMin_temperatureMax%" temperatureLow_temperatureHigh_temperatureMin_temperatureMax="29.41	44.23	30.53	44.23" placeholders="1" id="sMgRlcVJ20DVUm7yUbX1-70">
          <mxCell style="whiteSpace=wrap;html=1;" vertex="1" parent="1">
            <mxGeometry x="20" y="4850" width="150" height="30" as="geometry" />
          </mxCell>
        </UserObject>
        <UserObject label="%temperatureLow_temperatureHigh_temperatureMin_temperatureMax%" temperatureLow_temperatureHigh_temperatureMin_temperatureMax="33.14	42.33	29.41	42.33" placeholders="1" id="sMgRlcVJ20DVUm7yUbX1-71">
          <mxCell style="whiteSpace=wrap;html=1;" vertex="1" parent="1">
            <mxGeometry x="20" y="4920" width="150" height="30" as="geometry" />
          </mxCell>
        </UserObject>
        <UserObject label="%temperatureLow_temperatureHigh_temperatureMin_temperatureMax%" temperatureLow_temperatureHigh_temperatureMin_temperatureMax="30.48	39.63	33.14	39.63" placeholders="1" id="sMgRlcVJ20DVUm7yUbX1-72">
          <mxCell style="whiteSpace=wrap;html=1;" vertex="1" parent="1">
            <mxGeometry x="20" y="4990" width="150" height="30" as="geometry" />
          </mxCell>
        </UserObject>
        <UserObject label="%temperatureLow_temperatureHigh_temperatureMin_temperatureMax%" temperatureLow_temperatureHigh_temperatureMin_temperatureMax="31.92	39.91	30.48	39.91" placeholders="1" id="sMgRlcVJ20DVUm7yUbX1-73">
          <mxCell style="whiteSpace=wrap;html=1;" vertex="1" parent="1">
            <mxGeometry x="20" y="5060" width="150" height="30" as="geometry" />
          </mxCell>
        </UserObject>
        <UserObject label="%temperatureLow_temperatureHigh_temperatureMin_temperatureMax%" temperatureLow_temperatureHigh_temperatureMin_temperatureMax="32.46	46.21	31.92	46.21" placeholders="1" id="sMgRlcVJ20DVUm7yUbX1-74">
          <mxCell style="whiteSpace=wrap;html=1;" vertex="1" parent="1">
            <mxGeometry x="20" y="5130" width="150" height="30" as="geometry" />
          </mxCell>
        </UserObject>
        <UserObject label="%temperatureLow_temperatureHigh_temperatureMin_temperatureMax%" temperatureLow_temperatureHigh_temperatureMin_temperatureMax="26.78	38.74	31.34	38.74" placeholders="1" id="sMgRlcVJ20DVUm7yUbX1-75">
          <mxCell style="whiteSpace=wrap;html=1;" vertex="1" parent="1">
            <mxGeometry x="20" y="5200" width="150" height="30" as="geometry" />
          </mxCell>
        </UserObject>
        <UserObject label="%temperatureLow_temperatureHigh_temperatureMin_temperatureMax%" temperatureLow_temperatureHigh_temperatureMin_temperatureMax="28.41	47.19	26.78	47.19" placeholders="1" id="sMgRlcVJ20DVUm7yUbX1-76">
          <mxCell style="whiteSpace=wrap;html=1;" vertex="1" parent="1">
            <mxGeometry x="20" y="5270" width="150" height="30" as="geometry" />
          </mxCell>
        </UserObject>
        <UserObject label="%temperatureLow_temperatureHigh_temperatureMin_temperatureMax%" temperatureLow_temperatureHigh_temperatureMin_temperatureMax="29.51	42.87	28.41	42.87" placeholders="1" id="sMgRlcVJ20DVUm7yUbX1-77">
          <mxCell style="whiteSpace=wrap;html=1;" vertex="1" parent="1">
            <mxGeometry x="20" y="5340" width="150" height="30" as="geometry" />
          </mxCell>
        </UserObject>
        <UserObject label="%temperatureLow_temperatureHigh_temperatureMin_temperatureMax%" temperatureLow_temperatureHigh_temperatureMin_temperatureMax="29.7	45.4	29.51	45.4" placeholders="1" id="sMgRlcVJ20DVUm7yUbX1-78">
          <mxCell style="whiteSpace=wrap;html=1;" vertex="1" parent="1">
            <mxGeometry x="20" y="5410" width="130" height="30" as="geometry" />
          </mxCell>
        </UserObject>
        <UserObject label="%temperatureLow_temperatureHigh_temperatureMin_temperatureMax%" temperatureLow_temperatureHigh_temperatureMin_temperatureMax="33.57	37.34	29.7	37.34" placeholders="1" id="sMgRlcVJ20DVUm7yUbX1-79">
          <mxCell style="whiteSpace=wrap;html=1;" vertex="1" parent="1">
            <mxGeometry x="20" y="5480" width="150" height="30" as="geometry" />
          </mxCell>
        </UserObject>
        <UserObject label="%temperatureLow_temperatureHigh_temperatureMin_temperatureMax%" temperatureLow_temperatureHigh_temperatureMin_temperatureMax="31.8	34.75	31.24	37.77" placeholders="1" id="sMgRlcVJ20DVUm7yUbX1-80">
          <mxCell style="whiteSpace=wrap;html=1;" vertex="1" parent="1">
            <mxGeometry x="20" y="5550" width="150" height="30" as="geometry" />
          </mxCell>
        </UserObject>
        <UserObject label="%temperatureLow_temperatureHigh_temperatureMin_temperatureMax%" temperatureLow_temperatureHigh_temperatureMin_temperatureMax="34.29	49.81	32.16	49.81" placeholders="1" id="sMgRlcVJ20DVUm7yUbX1-81">
          <mxCell style="whiteSpace=wrap;html=1;" vertex="1" parent="1">
            <mxGeometry x="20" y="5620" width="150" height="30" as="geometry" />
          </mxCell>
        </UserObject>
        <UserObject label="%temperatureLow_temperatureHigh_temperatureMin_temperatureMax%" temperatureLow_temperatureHigh_temperatureMin_temperatureMax="33.94	48.38	34.29	48.38" placeholders="1" id="sMgRlcVJ20DVUm7yUbX1-82">
          <mxCell style="whiteSpace=wrap;html=1;" vertex="1" parent="1">
            <mxGeometry x="20" y="5690" width="150" height="30" as="geometry" />
          </mxCell>
        </UserObject>
        <UserObject label="%temperatureLow_temperatureHigh_temperatureMin_temperatureMax%" temperatureLow_temperatureHigh_temperatureMin_temperatureMax="32.64	49.21	33.94	49.21" placeholders="1" id="sMgRlcVJ20DVUm7yUbX1-83">
          <mxCell style="whiteSpace=wrap;html=1;" vertex="1" parent="1">
            <mxGeometry x="20" y="5760" width="150" height="30" as="geometry" />
          </mxCell>
        </UserObject>
        <UserObject label="%temperatureLow_temperatureHigh_temperatureMin_temperatureMax%" temperatureLow_temperatureHigh_temperatureMin_temperatureMax="31.8	42.23	32.64	42.23" placeholders="1" id="sMgRlcVJ20DVUm7yUbX1-84">
          <mxCell style="whiteSpace=wrap;html=1;" vertex="1" parent="1">
            <mxGeometry x="20" y="5830" width="150" height="30" as="geometry" />
          </mxCell>
        </UserObject>
        <UserObject label="%temperatureLow_temperatureHigh_temperatureMin_temperatureMax%" temperatureLow_temperatureHigh_temperatureMin_temperatureMax="30.08	47.39	31.8	47.39" placeholders="1" id="sMgRlcVJ20DVUm7yUbX1-85">
          <mxCell style="whiteSpace=wrap;html=1;" vertex="1" parent="1">
            <mxGeometry x="20" y="5900" width="150" height="30" as="geometry" />
          </mxCell>
        </UserObject>
        <UserObject label="%temperatureLow_temperatureHigh_temperatureMin_temperatureMax%" temperatureLow_temperatureHigh_temperatureMin_temperatureMax="37.18	43.52	30.08	43.52" placeholders="1" id="sMgRlcVJ20DVUm7yUbX1-86">
          <mxCell style="whiteSpace=wrap;html=1;" vertex="1" parent="1">
            <mxGeometry x="20" y="5970" width="150" height="30" as="geometry" />
          </mxCell>
        </UserObject>
        <UserObject label="%temperatureLow_temperatureHigh_temperatureMin_temperatureMax%" temperatureLow_temperatureHigh_temperatureMin_temperatureMax="46.97	50.96	37.18	50.96" placeholders="1" id="sMgRlcVJ20DVUm7yUbX1-87">
          <mxCell style="whiteSpace=wrap;html=1;" vertex="1" parent="1">
            <mxGeometry x="20" y="6040" width="150" height="30" as="geometry" />
          </mxCell>
        </UserObject>
        <UserObject label="%temperatureLow_temperatureHigh_temperatureMin_temperatureMax%" temperatureLow_temperatureHigh_temperatureMin_temperatureMax="46.97	50.12	46.97	50.12" placeholders="1" id="sMgRlcVJ20DVUm7yUbX1-88">
          <mxCell style="whiteSpace=wrap;html=1;" vertex="1" parent="1">
            <mxGeometry x="20" y="6110" width="150" height="30" as="geometry" />
          </mxCell>
        </UserObject>
        <UserObject label="%temperatureLow_temperatureHigh_temperatureMin_temperatureMax%" temperatureLow_temperatureHigh_temperatureMin_temperatureMax="37.49	57.74	44.82	57.74" placeholders="1" id="sMgRlcVJ20DVUm7yUbX1-89">
          <mxCell style="whiteSpace=wrap;html=1;" vertex="1" parent="1">
            <mxGeometry x="20" y="6180" width="150" height="30" as="geometry" />
          </mxCell>
        </UserObject>
        <UserObject label="%temperatureLow_temperatureHigh_temperatureMin_temperatureMax%" temperatureLow_temperatureHigh_temperatureMin_temperatureMax="43.18	56.11	37.49	56.11" placeholders="1" id="sMgRlcVJ20DVUm7yUbX1-90">
          <mxCell style="whiteSpace=wrap;html=1;" vertex="1" parent="1">
            <mxGeometry x="20" y="6250" width="150" height="30" as="geometry" />
          </mxCell>
        </UserObject>
        <UserObject label="%temperatureLow_temperatureHigh_temperatureMin_temperatureMax%" temperatureLow_temperatureHigh_temperatureMin_temperatureMax="32.05	57.65	43.18	57.65" placeholders="1" id="sMgRlcVJ20DVUm7yUbX1-91">
          <mxCell style="whiteSpace=wrap;html=1;" vertex="1" parent="1">
            <mxGeometry x="20" y="6320" width="150" height="30" as="geometry" />
          </mxCell>
        </UserObject>
        <UserObject label="%temperatureLow_temperatureHigh_temperatureMin_temperatureMax%" temperatureLow_temperatureHigh_temperatureMin_temperatureMax="33.5	41.78	32.05	41.81" placeholders="1" id="sMgRlcVJ20DVUm7yUbX1-92">
          <mxCell style="whiteSpace=wrap;html=1;" vertex="1" parent="1">
            <mxGeometry x="20" y="6390" width="150" height="30" as="geometry" />
          </mxCell>
        </UserObject>
        <UserObject label="%temperatureLow_temperatureHigh_temperatureMin_temperatureMax%" temperatureLow_temperatureHigh_temperatureMin_temperatureMax="39.82	40.73	33.5	40.73" placeholders="1" id="sMgRlcVJ20DVUm7yUbX1-93">
          <mxCell style="whiteSpace=wrap;html=1;" vertex="1" parent="1">
            <mxGeometry x="20" y="6460" width="150" height="30" as="geometry" />
          </mxCell>
        </UserObject>
        <UserObject label="%temperatureLow_temperatureHigh_temperatureMin_temperatureMax%" temperatureLow_temperatureHigh_temperatureMin_temperatureMax="32.92	54.53	40.12	54.53" placeholders="1" id="sMgRlcVJ20DVUm7yUbX1-94">
          <mxCell style="whiteSpace=wrap;html=1;" vertex="1" parent="1">
            <mxGeometry x="20" y="6530" width="150" height="30" as="geometry" />
          </mxCell>
        </UserObject>
        <UserObject label="%temperatureLow_temperatureHigh_temperatureMin_temperatureMax%" temperatureLow_temperatureHigh_temperatureMin_temperatureMax="32.75	44.28	32.92	44.28" placeholders="1" id="sMgRlcVJ20DVUm7yUbX1-95">
          <mxCell style="whiteSpace=wrap;html=1;" vertex="1" parent="1">
            <mxGeometry x="20" y="6600" width="150" height="30" as="geometry" />
          </mxCell>
        </UserObject>
        <UserObject label="%temperatureLow_temperatureHigh_temperatureMin_temperatureMax%" temperatureLow_temperatureHigh_temperatureMin_temperatureMax="39.6	59.31	32.75	59.31" placeholders="1" id="sMgRlcVJ20DVUm7yUbX1-96">
          <mxCell style="whiteSpace=wrap;html=1;" vertex="1" parent="1">
            <mxGeometry x="20" y="6670" width="150" height="30" as="geometry" />
          </mxCell>
        </UserObject>
        <UserObject label="%temperatureLow_temperatureHigh_temperatureMin_temperatureMax%" temperatureLow_temperatureHigh_temperatureMin_temperatureMax="30.99	46.7	38.63	49.08" placeholders="1" id="sMgRlcVJ20DVUm7yUbX1-97">
          <mxCell style="whiteSpace=wrap;html=1;" vertex="1" parent="1">
            <mxGeometry x="20" y="6740" width="150" height="30" as="geometry" />
          </mxCell>
        </UserObject>
        <UserObject label="%temperatureLow_temperatureHigh_temperatureMin_temperatureMax%" temperatureLow_temperatureHigh_temperatureMin_temperatureMax="30.23	43.16	30.99	43.16" placeholders="1" id="sMgRlcVJ20DVUm7yUbX1-98">
          <mxCell style="whiteSpace=wrap;html=1;" vertex="1" parent="1">
            <mxGeometry x="20" y="6810" width="150" height="30" as="geometry" />
          </mxCell>
        </UserObject>
        <UserObject label="%temperatureLow_temperatureHigh_temperatureMin_temperatureMax%" temperatureLow_temperatureHigh_temperatureMin_temperatureMax="37.04	47.76	30.23	47.76" placeholders="1" id="sMgRlcVJ20DVUm7yUbX1-99">
          <mxCell style="whiteSpace=wrap;html=1;" vertex="1" parent="1">
            <mxGeometry x="20" y="6880" width="150" height="30" as="geometry" />
          </mxCell>
        </UserObject>
        <UserObject label="%temperatureLow_temperatureHigh_temperatureMin_temperatureMax%" temperatureLow_temperatureHigh_temperatureMin_temperatureMax="31.02	48.03	37.04	48.03" placeholders="1" id="sMgRlcVJ20DVUm7yUbX1-100">
          <mxCell style="whiteSpace=wrap;html=1;" vertex="1" parent="1">
            <mxGeometry x="20" y="6950" width="150" height="30" as="geometry" />
          </mxCell>
        </UserObject>
        <UserObject label="%temperatureLow_temperatureHigh_temperatureMin_temperatureMax%" temperatureLow_temperatureHigh_temperatureMin_temperatureMax="41.14	50.01	31.02	50.01" placeholders="1" id="sMgRlcVJ20DVUm7yUbX1-101">
          <mxCell style="whiteSpace=wrap;html=1;" vertex="1" parent="1">
            <mxGeometry x="20" y="7020" width="150" height="30" as="geometry" />
          </mxCell>
        </UserObject>
        <UserObject label="%temperatureLow_temperatureHigh_temperatureMin_temperatureMax%" temperatureLow_temperatureHigh_temperatureMin_temperatureMax="55.1	59.8	41.14	59.8" placeholders="1" id="sMgRlcVJ20DVUm7yUbX1-102">
          <mxCell style="whiteSpace=wrap;html=1;" vertex="1" parent="1">
            <mxGeometry x="20" y="7090" width="130" height="30" as="geometry" />
          </mxCell>
        </UserObject>
        <UserObject label="%temperatureLow_temperatureHigh_temperatureMin_temperatureMax%" temperatureLow_temperatureHigh_temperatureMin_temperatureMax="58.22	81.54	56.25	81.54" placeholders="1" id="sMgRlcVJ20DVUm7yUbX1-103">
          <mxCell style="whiteSpace=wrap;html=1;" vertex="1" parent="1">
            <mxGeometry x="20" y="7160" width="150" height="30" as="geometry" />
          </mxCell>
        </UserObject>
        <UserObject label="%temperatureLow_temperatureHigh_temperatureMin_temperatureMax%" temperatureLow_temperatureHigh_temperatureMin_temperatureMax="41.27	76.42	46.95	76.42" placeholders="1" id="sMgRlcVJ20DVUm7yUbX1-104">
          <mxCell style="whiteSpace=wrap;html=1;" vertex="1" parent="1">
            <mxGeometry x="20" y="7230" width="150" height="30" as="geometry" />
          </mxCell>
        </UserObject>
        <UserObject label="%temperatureLow_temperatureHigh_temperatureMin_temperatureMax%" temperatureLow_temperatureHigh_temperatureMin_temperatureMax="37.69	41.33	37.69	44.88" placeholders="1" id="sMgRlcVJ20DVUm7yUbX1-105">
          <mxCell style="whiteSpace=wrap;html=1;" vertex="1" parent="1">
            <mxGeometry x="20" y="7300" width="150" height="30" as="geometry" />
          </mxCell>
        </UserObject>
        <UserObject label="%temperatureLow_temperatureHigh_temperatureMin_temperatureMax%" temperatureLow_temperatureHigh_temperatureMin_temperatureMax="40.28	57.68	38.04	57.68" placeholders="1" id="sMgRlcVJ20DVUm7yUbX1-106">
          <mxCell style="whiteSpace=wrap;html=1;" vertex="1" parent="1">
            <mxGeometry x="20" y="7370" width="150" height="30" as="geometry" />
          </mxCell>
        </UserObject>
        <UserObject label="%temperatureLow_temperatureHigh_temperatureMin_temperatureMax%" temperatureLow_temperatureHigh_temperatureMin_temperatureMax="36.93	45.64	39.85	45.64" placeholders="1" id="sMgRlcVJ20DVUm7yUbX1-107">
          <mxCell style="whiteSpace=wrap;html=1;" vertex="1" parent="1">
            <mxGeometry x="20" y="7440" width="150" height="30" as="geometry" />
          </mxCell>
        </UserObject>
        <UserObject label="%temperatureLow_temperatureHigh_temperatureMin_temperatureMax%" temperatureLow_temperatureHigh_temperatureMin_temperatureMax="41.04	52.95	36.93	52.95" placeholders="1" id="sMgRlcVJ20DVUm7yUbX1-108">
          <mxCell style="whiteSpace=wrap;html=1;" vertex="1" parent="1">
            <mxGeometry x="20" y="7510" width="150" height="30" as="geometry" />
          </mxCell>
        </UserObject>
        <UserObject label="%temperatureLow_temperatureHigh_temperatureMin_temperatureMax%" temperatureLow_temperatureHigh_temperatureMin_temperatureMax="36.17	44.89	38.8	46.15" placeholders="1" id="sMgRlcVJ20DVUm7yUbX1-109">
          <mxCell style="whiteSpace=wrap;html=1;" vertex="1" parent="1">
            <mxGeometry x="20" y="7580" width="150" height="30" as="geometry" />
          </mxCell>
        </UserObject>
        <UserObject label="%temperatureLow_temperatureHigh_temperatureMin_temperatureMax%" temperatureLow_temperatureHigh_temperatureMin_temperatureMax="36.78	50.06	36.17	50.06" placeholders="1" id="sMgRlcVJ20DVUm7yUbX1-110">
          <mxCell style="whiteSpace=wrap;html=1;" vertex="1" parent="1">
            <mxGeometry x="20" y="7650" width="150" height="30" as="geometry" />
          </mxCell>
        </UserObject>
        <UserObject label="%temperatureLow_temperatureHigh_temperatureMin_temperatureMax%" temperatureLow_temperatureHigh_temperatureMin_temperatureMax="40.18	61.21	36.78	61.21" placeholders="1" id="sMgRlcVJ20DVUm7yUbX1-111">
          <mxCell style="whiteSpace=wrap;html=1;" vertex="1" parent="1">
            <mxGeometry x="20" y="7720" width="150" height="30" as="geometry" />
          </mxCell>
        </UserObject>
        <UserObject label="%temperatureLow_temperatureHigh_temperatureMin_temperatureMax%" temperatureLow_temperatureHigh_temperatureMin_temperatureMax="39.66	64.65	40.18	64.65" placeholders="1" id="sMgRlcVJ20DVUm7yUbX1-112">
          <mxCell style="whiteSpace=wrap;html=1;" vertex="1" parent="1">
            <mxGeometry x="20" y="7790" width="150" height="30" as="geometry" />
          </mxCell>
        </UserObject>
        <UserObject label="%temperatureLow_temperatureHigh_temperatureMin_temperatureMax%" temperatureLow_temperatureHigh_temperatureMin_temperatureMax="40.14	64.37	39.66	64.37" placeholders="1" id="sMgRlcVJ20DVUm7yUbX1-113">
          <mxCell style="whiteSpace=wrap;html=1;" vertex="1" parent="1">
            <mxGeometry x="20" y="7860" width="150" height="30" as="geometry" />
          </mxCell>
        </UserObject>
        <UserObject label="%temperatureLow_temperatureHigh_temperatureMin_temperatureMax%" temperatureLow_temperatureHigh_temperatureMin_temperatureMax="51.89	63.93	40.14	63.93" placeholders="1" id="sMgRlcVJ20DVUm7yUbX1-114">
          <mxCell style="whiteSpace=wrap;html=1;" vertex="1" parent="1">
            <mxGeometry x="20" y="7930" width="150" height="30" as="geometry" />
          </mxCell>
        </UserObject>
        <UserObject label="%temperatureLow_temperatureHigh_temperatureMin_temperatureMax%" temperatureLow_temperatureHigh_temperatureMin_temperatureMax="54.78	57.56	51.89	57.56" placeholders="1" id="sMgRlcVJ20DVUm7yUbX1-115">
          <mxCell style="whiteSpace=wrap;html=1;" vertex="1" parent="1">
            <mxGeometry x="20" y="8000" width="150" height="30" as="geometry" />
          </mxCell>
        </UserObject>
        <UserObject label="%temperatureLow_temperatureHigh_temperatureMin_temperatureMax%" temperatureLow_temperatureHigh_temperatureMin_temperatureMax="52.2	68.34	54.78	68.34" placeholders="1" id="sMgRlcVJ20DVUm7yUbX1-116">
          <mxCell style="whiteSpace=wrap;html=1;" vertex="1" parent="1">
            <mxGeometry x="20" y="8070" width="150" height="30" as="geometry" />
          </mxCell>
        </UserObject>
        <UserObject label="%temperatureLow_temperatureHigh_temperatureMin_temperatureMax%" temperatureLow_temperatureHigh_temperatureMin_temperatureMax="47.67	53.87	51.25	54.48" placeholders="1" id="sMgRlcVJ20DVUm7yUbX1-117">
          <mxCell style="whiteSpace=wrap;html=1;" vertex="1" parent="1">
            <mxGeometry x="20" y="8140" width="150" height="30" as="geometry" />
          </mxCell>
        </UserObject>
        <UserObject label="%temperatureLow_temperatureHigh_temperatureMin_temperatureMax%" temperatureLow_temperatureHigh_temperatureMin_temperatureMax="48.85	66.3	47.67	66.3" placeholders="1" id="sMgRlcVJ20DVUm7yUbX1-118">
          <mxCell style="whiteSpace=wrap;html=1;" vertex="1" parent="1">
            <mxGeometry x="20" y="8210" width="140" height="30" as="geometry" />
          </mxCell>
        </UserObject>
        <UserObject label="%temperatureLow_temperatureHigh_temperatureMin_temperatureMax%" temperatureLow_temperatureHigh_temperatureMin_temperatureMax="45.64	56.5	46.5	56.5" placeholders="1" id="sMgRlcVJ20DVUm7yUbX1-119">
          <mxCell style="whiteSpace=wrap;html=1;" vertex="1" parent="1">
            <mxGeometry x="20" y="8280" width="130" height="30" as="geometry" />
          </mxCell>
        </UserObject>
        <UserObject label="%temperatureLow_temperatureHigh_temperatureMin_temperatureMax%" temperatureLow_temperatureHigh_temperatureMin_temperatureMax="45.04	49.99	45.64	49.99" placeholders="1" id="sMgRlcVJ20DVUm7yUbX1-120">
          <mxCell style="whiteSpace=wrap;html=1;" vertex="1" parent="1">
            <mxGeometry x="20" y="8350" width="150" height="30" as="geometry" />
          </mxCell>
        </UserObject>
        <UserObject label="%temperatureLow_temperatureHigh_temperatureMin_temperatureMax%" temperatureLow_temperatureHigh_temperatureMin_temperatureMax="59.14	79.63	45.04	79.63" placeholders="1" id="sMgRlcVJ20DVUm7yUbX1-121">
          <mxCell style="whiteSpace=wrap;html=1;" vertex="1" parent="1">
            <mxGeometry x="20" y="8420" width="150" height="30" as="geometry" />
          </mxCell>
        </UserObject>
        <UserObject label="%temperatureLow_temperatureHigh_temperatureMin_temperatureMax%" temperatureLow_temperatureHigh_temperatureMin_temperatureMax="66.63	88.71	59.14	88.71" placeholders="1" id="sMgRlcVJ20DVUm7yUbX1-122">
          <mxCell style="whiteSpace=wrap;html=1;" vertex="1" parent="1">
            <mxGeometry x="20" y="8490" width="150" height="30" as="geometry" />
          </mxCell>
        </UserObject>
        <UserObject label="%temperatureLow_temperatureHigh_temperatureMin_temperatureMax%" temperatureLow_temperatureHigh_temperatureMin_temperatureMax="67.57	91.4	66.63	91.4" placeholders="1" id="sMgRlcVJ20DVUm7yUbX1-123">
          <mxCell style="whiteSpace=wrap;html=1;" vertex="1" parent="1">
            <mxGeometry x="20" y="8560" width="140" height="30" as="geometry" />
          </mxCell>
        </UserObject>
        <UserObject label="%temperatureLow_temperatureHigh_temperatureMin_temperatureMax%" temperatureLow_temperatureHigh_temperatureMin_temperatureMax="60.99	82.91	67.57	82.91" placeholders="1" id="sMgRlcVJ20DVUm7yUbX1-124">
          <mxCell style="whiteSpace=wrap;html=1;" vertex="1" parent="1">
            <mxGeometry x="20" y="8630" width="150" height="30" as="geometry" />
          </mxCell>
        </UserObject>
        <UserObject label="%temperatureLow_temperatureHigh_temperatureMin_temperatureMax%" temperatureLow_temperatureHigh_temperatureMin_temperatureMax="58.77	74.32	60.99	76.34" placeholders="1" id="sMgRlcVJ20DVUm7yUbX1-125">
          <mxCell style="whiteSpace=wrap;html=1;" vertex="1" parent="1">
            <mxGeometry x="20" y="8700" width="150" height="30" as="geometry" />
          </mxCell>
        </UserObject>
        <UserObject label="%temperatureLow_temperatureHigh_temperatureMin_temperatureMax%" temperatureLow_temperatureHigh_temperatureMin_temperatureMax="52.11	63.76	57.06	63.86" placeholders="1" id="sMgRlcVJ20DVUm7yUbX1-126">
          <mxCell style="whiteSpace=wrap;html=1;" vertex="1" parent="1">
            <mxGeometry x="20" y="8770" width="150" height="30" as="geometry" />
          </mxCell>
        </UserObject>
        <UserObject label="%temperatureLow_temperatureHigh_temperatureMin_temperatureMax%" temperatureLow_temperatureHigh_temperatureMin_temperatureMax="49.83	73.67	52.11	73.67" placeholders="1" id="sMgRlcVJ20DVUm7yUbX1-127">
          <mxCell style="whiteSpace=wrap;html=1;" vertex="1" parent="1">
            <mxGeometry x="20" y="8840" width="150" height="30" as="geometry" />
          </mxCell>
        </UserObject>
        <UserObject label="%temperatureLow_temperatureHigh_temperatureMin_temperatureMax%" temperatureLow_temperatureHigh_temperatureMin_temperatureMax="49.16	70.88	49.83	70.88" placeholders="1" id="sMgRlcVJ20DVUm7yUbX1-128">
          <mxCell style="whiteSpace=wrap;html=1;" vertex="1" parent="1">
            <mxGeometry x="20" y="8910" width="150" height="30" as="geometry" />
          </mxCell>
        </UserObject>
        <UserObject label="%temperatureLow_temperatureHigh_temperatureMin_temperatureMax%" temperatureLow_temperatureHigh_temperatureMin_temperatureMax="53.36	74.6	49.16	74.6" placeholders="1" id="sMgRlcVJ20DVUm7yUbX1-129">
          <mxCell style="whiteSpace=wrap;html=1;" vertex="1" parent="1">
            <mxGeometry x="20" y="8980" width="140" height="30" as="geometry" />
          </mxCell>
        </UserObject>
        <UserObject label="%temperatureLow_temperatureHigh_temperatureMin_temperatureMax%" temperatureLow_temperatureHigh_temperatureMin_temperatureMax="58.4	67.58	53.36	67.58" placeholders="1" id="sMgRlcVJ20DVUm7yUbX1-130">
          <mxCell style="whiteSpace=wrap;html=1;" vertex="1" parent="1">
            <mxGeometry x="20" y="9050" width="150" height="30" as="geometry" />
          </mxCell>
        </UserObject>
        <UserObject label="%temperatureLow_temperatureHigh_temperatureMin_temperatureMax%" temperatureLow_temperatureHigh_temperatureMin_temperatureMax="51.8	72.66	58.4	72.66" placeholders="1" id="sMgRlcVJ20DVUm7yUbX1-131">
          <mxCell style="whiteSpace=wrap;html=1;" vertex="1" parent="1">
            <mxGeometry x="20" y="9120" width="140" height="30" as="geometry" />
          </mxCell>
        </UserObject>
        <UserObject label="%temperatureLow_temperatureHigh_temperatureMin_temperatureMax%" temperatureLow_temperatureHigh_temperatureMin_temperatureMax="50.97	57.47	51.8	62.96" placeholders="1" id="sMgRlcVJ20DVUm7yUbX1-132">
          <mxCell style="whiteSpace=wrap;html=1;" vertex="1" parent="1">
            <mxGeometry x="20" y="9190" width="150" height="30" as="geometry" />
          </mxCell>
        </UserObject>
        <UserObject label="%temperatureLow_temperatureHigh_temperatureMin_temperatureMax%" temperatureLow_temperatureHigh_temperatureMin_temperatureMax="52	53.96	50.97	53.96" placeholders="1" id="sMgRlcVJ20DVUm7yUbX1-133">
          <mxCell style="whiteSpace=wrap;html=1;" vertex="1" parent="1">
            <mxGeometry x="20" y="9260" width="140" height="30" as="geometry" />
          </mxCell>
        </UserObject>
        <UserObject label="%temperatureLow_temperatureHigh_temperatureMin_temperatureMax%" temperatureLow_temperatureHigh_temperatureMin_temperatureMax="59.56	70.29	52	70.29" placeholders="1" id="sMgRlcVJ20DVUm7yUbX1-134">
          <mxCell style="whiteSpace=wrap;html=1;" vertex="1" parent="1">
            <mxGeometry x="20" y="9330" width="140" height="30" as="geometry" />
          </mxCell>
        </UserObject>
        <UserObject label="%temperatureLow_temperatureHigh_temperatureMin_temperatureMax%" temperatureLow_temperatureHigh_temperatureMin_temperatureMax="61.02	88.46	59.56	88.46" placeholders="1" id="sMgRlcVJ20DVUm7yUbX1-135">
          <mxCell style="whiteSpace=wrap;html=1;" vertex="1" parent="1">
            <mxGeometry x="20" y="9400" width="150" height="30" as="geometry" />
          </mxCell>
        </UserObject>
        <UserObject label="%temperatureLow_temperatureHigh_temperatureMin_temperatureMax%" temperatureLow_temperatureHigh_temperatureMin_temperatureMax="56.35	63.79	56.81	63.91" placeholders="1" id="sMgRlcVJ20DVUm7yUbX1-136">
          <mxCell style="whiteSpace=wrap;html=1;" vertex="1" parent="1">
            <mxGeometry x="20" y="9470" width="150" height="30" as="geometry" />
          </mxCell>
        </UserObject>
        <UserObject label="%temperatureLow_temperatureHigh_temperatureMin_temperatureMax%" temperatureLow_temperatureHigh_temperatureMin_temperatureMax="61.42	71.11	56.35	71.11" placeholders="1" id="sMgRlcVJ20DVUm7yUbX1-137">
          <mxCell style="whiteSpace=wrap;html=1;" vertex="1" parent="1">
            <mxGeometry x="20" y="9540" width="150" height="30" as="geometry" />
          </mxCell>
        </UserObject>
        <UserObject label="%temperatureLow_temperatureHigh_temperatureMin_temperatureMax%" temperatureLow_temperatureHigh_temperatureMin_temperatureMax="49.31	63.96	55.92	63.96" placeholders="1" id="sMgRlcVJ20DVUm7yUbX1-138">
          <mxCell style="whiteSpace=wrap;html=1;" vertex="1" parent="1">
            <mxGeometry x="20" y="9610" width="150" height="30" as="geometry" />
          </mxCell>
        </UserObject>
        <UserObject label="%temperatureLow_temperatureHigh_temperatureMin_temperatureMax%" temperatureLow_temperatureHigh_temperatureMin_temperatureMax="55.42	55.77	49.31	55.77" placeholders="1" id="sMgRlcVJ20DVUm7yUbX1-139">
          <mxCell style="whiteSpace=wrap;html=1;" vertex="1" parent="1">
            <mxGeometry x="20" y="9680" width="150" height="30" as="geometry" />
          </mxCell>
        </UserObject>
        <UserObject label="%temperatureLow_temperatureHigh_temperatureMin_temperatureMax%" temperatureLow_temperatureHigh_temperatureMin_temperatureMax="56.88	80.88	55.7	80.88" placeholders="1" id="sMgRlcVJ20DVUm7yUbX1-140">
          <mxCell style="whiteSpace=wrap;html=1;" vertex="1" parent="1">
            <mxGeometry x="20" y="9750" width="150" height="30" as="geometry" />
          </mxCell>
        </UserObject>
        <UserObject label="%temperatureLow_temperatureHigh_temperatureMin_temperatureMax%" temperatureLow_temperatureHigh_temperatureMin_temperatureMax="58.02	75.33	56.88	75.33" placeholders="1" id="sMgRlcVJ20DVUm7yUbX1-141">
          <mxCell style="whiteSpace=wrap;html=1;" vertex="1" parent="1">
            <mxGeometry x="20" y="9820" width="150" height="30" as="geometry" />
          </mxCell>
        </UserObject>
        <UserObject label="%temperatureLow_temperatureHigh_temperatureMin_temperatureMax%" temperatureLow_temperatureHigh_temperatureMin_temperatureMax="57.31	65.4	57.31	65.4" placeholders="1" id="sMgRlcVJ20DVUm7yUbX1-142">
          <mxCell style="whiteSpace=wrap;html=1;" vertex="1" parent="1">
            <mxGeometry x="20" y="9890" width="140" height="30" as="geometry" />
          </mxCell>
        </UserObject>
        <UserObject label="%temperatureLow_temperatureHigh_temperatureMin_temperatureMax%" temperatureLow_temperatureHigh_temperatureMin_temperatureMax="62.57	80.6	57.36	80.6" placeholders="1" id="sMgRlcVJ20DVUm7yUbX1-143">
          <mxCell style="whiteSpace=wrap;html=1;" vertex="1" parent="1">
            <mxGeometry x="20" y="9960" width="140" height="30" as="geometry" />
          </mxCell>
        </UserObject>
        <UserObject label="%temperatureLow_temperatureHigh_temperatureMin_temperatureMax%" temperatureLow_temperatureHigh_temperatureMin_temperatureMax="59.7	82.26	62.57	82.26" placeholders="1" id="sMgRlcVJ20DVUm7yUbX1-144">
          <mxCell style="whiteSpace=wrap;html=1;" vertex="1" parent="1">
            <mxGeometry x="20" y="10030" width="150" height="30" as="geometry" />
          </mxCell>
        </UserObject>
        <UserObject label="%temperatureLow_temperatureHigh_temperatureMin_temperatureMax%" temperatureLow_temperatureHigh_temperatureMin_temperatureMax="69.68	86.13	59.7	86.13" placeholders="1" id="sMgRlcVJ20DVUm7yUbX1-145">
          <mxCell style="whiteSpace=wrap;html=1;" vertex="1" parent="1">
            <mxGeometry x="20" y="10100" width="150" height="30" as="geometry" />
          </mxCell>
        </UserObject>
        <UserObject label="%temperatureLow_temperatureHigh_temperatureMin_temperatureMax%" temperatureLow_temperatureHigh_temperatureMin_temperatureMax="63.95	88.71	69.68	88.71" placeholders="1" id="sMgRlcVJ20DVUm7yUbX1-146">
          <mxCell style="whiteSpace=wrap;html=1;" vertex="1" parent="1">
            <mxGeometry x="20" y="10170" width="150" height="30" as="geometry" />
          </mxCell>
        </UserObject>
        <UserObject label="%temperatureLow_temperatureHigh_temperatureMin_temperatureMax%" temperatureLow_temperatureHigh_temperatureMin_temperatureMax="55.16	65.22	57.06	74.2" placeholders="1" id="sMgRlcVJ20DVUm7yUbX1-147">
          <mxCell style="whiteSpace=wrap;html=1;" vertex="1" parent="1">
            <mxGeometry x="20" y="10240" width="150" height="30" as="geometry" />
          </mxCell>
        </UserObject>
        <UserObject label="%temperatureLow_temperatureHigh_temperatureMin_temperatureMax%" temperatureLow_temperatureHigh_temperatureMin_temperatureMax="62.78	68.29	55.16	68.29" placeholders="1" id="sMgRlcVJ20DVUm7yUbX1-148">
          <mxCell style="whiteSpace=wrap;html=1;" vertex="1" parent="1">
            <mxGeometry x="20" y="10310" width="150" height="30" as="geometry" />
          </mxCell>
        </UserObject>
        <UserObject label="%temperatureLow_temperatureHigh_temperatureMin_temperatureMax%" temperatureLow_temperatureHigh_temperatureMin_temperatureMax="63.95	86.88	63.08	86.88" placeholders="1" id="sMgRlcVJ20DVUm7yUbX1-149">
          <mxCell style="whiteSpace=wrap;html=1;" vertex="1" parent="1">
            <mxGeometry x="20" y="10380" width="150" height="30" as="geometry" />
          </mxCell>
        </UserObject>
        <UserObject label="%temperatureLow_temperatureHigh_temperatureMin_temperatureMax%" temperatureLow_temperatureHigh_temperatureMin_temperatureMax="60.92	71.95	60.92	71.95" placeholders="1" id="sMgRlcVJ20DVUm7yUbX1-150">
          <mxCell style="whiteSpace=wrap;html=1;" vertex="1" parent="1">
            <mxGeometry x="20" y="10450" width="150" height="30" as="geometry" />
          </mxCell>
        </UserObject>
        <UserObject label="%temperatureLow_temperatureHigh_temperatureMin_temperatureMax%" temperatureLow_temperatureHigh_temperatureMin_temperatureMax="64.91	67.9	61.42	67.9" placeholders="1" id="sMgRlcVJ20DVUm7yUbX1-151">
          <mxCell style="whiteSpace=wrap;html=1;" vertex="1" parent="1">
            <mxGeometry x="20" y="10520" width="140" height="30" as="geometry" />
          </mxCell>
        </UserObject>
        <UserObject label="%temperatureLow_temperatureHigh_temperatureMin_temperatureMax%" temperatureLow_temperatureHigh_temperatureMin_temperatureMax="68.43	80.27	64.91	80.27" placeholders="1" id="sMgRlcVJ20DVUm7yUbX1-152">
          <mxCell style="whiteSpace=wrap;html=1;" vertex="1" parent="1">
            <mxGeometry x="20" y="10590" width="150" height="30" as="geometry" />
          </mxCell>
        </UserObject>
        <UserObject label="%temperatureLow_temperatureHigh_temperatureMin_temperatureMax%" temperatureLow_temperatureHigh_temperatureMin_temperatureMax="61.03	84.53	68.43	84.53" placeholders="1" id="sMgRlcVJ20DVUm7yUbX1-153">
          <mxCell style="whiteSpace=wrap;html=1;" vertex="1" parent="1">
            <mxGeometry x="20" y="10660" width="150" height="30" as="geometry" />
          </mxCell>
        </UserObject>
        <UserObject label="%temperatureLow_temperatureHigh_temperatureMin_temperatureMax%" temperatureLow_temperatureHigh_temperatureMin_temperatureMax="51.67	62.21	53.78	70.58" placeholders="1" id="sMgRlcVJ20DVUm7yUbX1-154">
          <mxCell style="whiteSpace=wrap;html=1;" vertex="1" parent="1">
            <mxGeometry x="20" y="10730" width="150" height="30" as="geometry" />
          </mxCell>
        </UserObject>
        <UserObject label="%temperatureLow_temperatureHigh_temperatureMin_temperatureMax%" temperatureLow_temperatureHigh_temperatureMin_temperatureMax="54.92	70.69	51.67	70.69" placeholders="1" id="sMgRlcVJ20DVUm7yUbX1-155">
          <mxCell style="whiteSpace=wrap;html=1;" vertex="1" parent="1">
            <mxGeometry x="20" y="10800" width="150" height="30" as="geometry" />
          </mxCell>
        </UserObject>
        <UserObject label="%temperatureLow_temperatureHigh_temperatureMin_temperatureMax%" temperatureLow_temperatureHigh_temperatureMin_temperatureMax="57.42	72.76	54.92	72.76" placeholders="1" id="sMgRlcVJ20DVUm7yUbX1-156">
          <mxCell style="whiteSpace=wrap;html=1;" vertex="1" parent="1">
            <mxGeometry x="20" y="10870" width="150" height="30" as="geometry" />
          </mxCell>
        </UserObject>
        <UserObject label="%temperatureLow_temperatureHigh_temperatureMin_temperatureMax%" temperatureLow_temperatureHigh_temperatureMin_temperatureMax="59.27	68.26	57.42	68.26" placeholders="1" id="sMgRlcVJ20DVUm7yUbX1-157">
          <mxCell style="whiteSpace=wrap;html=1;" vertex="1" parent="1">
            <mxGeometry x="20" y="10940" width="150" height="30" as="geometry" />
          </mxCell>
        </UserObject>
        <UserObject label="%temperatureLow_temperatureHigh_temperatureMin_temperatureMax%" temperatureLow_temperatureHigh_temperatureMin_temperatureMax="56.8	69.82	59.27	69.82" placeholders="1" id="sMgRlcVJ20DVUm7yUbX1-158">
          <mxCell style="whiteSpace=wrap;html=1;" vertex="1" parent="1">
            <mxGeometry x="20" y="11010" width="150" height="30" as="geometry" />
          </mxCell>
        </UserObject>
        <UserObject label="%temperatureLow_temperatureHigh_temperatureMin_temperatureMax%" temperatureLow_temperatureHigh_temperatureMin_temperatureMax="65.51	80.72	56.8	80.72" placeholders="1" id="sMgRlcVJ20DVUm7yUbX1-159">
          <mxCell style="whiteSpace=wrap;html=1;" vertex="1" parent="1">
            <mxGeometry x="20" y="11080" width="150" height="30" as="geometry" />
          </mxCell>
        </UserObject>
        <UserObject label="%temperatureLow_temperatureHigh_temperatureMin_temperatureMax%" temperatureLow_temperatureHigh_temperatureMin_temperatureMax="66.36	79.67	65.51	79.67" placeholders="1" id="sMgRlcVJ20DVUm7yUbX1-160">
          <mxCell style="whiteSpace=wrap;html=1;" vertex="1" parent="1">
            <mxGeometry x="20" y="11150" width="150" height="30" as="geometry" />
          </mxCell>
        </UserObject>
        <UserObject label="%temperatureLow_temperatureHigh_temperatureMin_temperatureMax%" temperatureLow_temperatureHigh_temperatureMin_temperatureMax="57.63	69.42	60.75	69.42" placeholders="1" id="sMgRlcVJ20DVUm7yUbX1-161">
          <mxCell style="whiteSpace=wrap;html=1;" vertex="1" parent="1">
            <mxGeometry x="20" y="11220" width="150" height="30" as="geometry" />
          </mxCell>
        </UserObject>
        <UserObject label="%temperatureLow_temperatureHigh_temperatureMin_temperatureMax%" temperatureLow_temperatureHigh_temperatureMin_temperatureMax="53.03	70.26	57.63	70.26" placeholders="1" id="sMgRlcVJ20DVUm7yUbX1-162">
          <mxCell style="whiteSpace=wrap;html=1;" vertex="1" parent="1">
            <mxGeometry x="20" y="11290" width="150" height="30" as="geometry" />
          </mxCell>
        </UserObject>
        <UserObject label="%temperatureLow_temperatureHigh_temperatureMin_temperatureMax%" temperatureLow_temperatureHigh_temperatureMin_temperatureMax="61.62	73.83	53.03	73.83" placeholders="1" id="sMgRlcVJ20DVUm7yUbX1-163">
          <mxCell style="whiteSpace=wrap;html=1;" vertex="1" parent="1">
            <mxGeometry x="20" y="11360" width="150" height="30" as="geometry" />
          </mxCell>
        </UserObject>
        <UserObject label="%temperatureLow_temperatureHigh_temperatureMin_temperatureMax%" temperatureLow_temperatureHigh_temperatureMin_temperatureMax="66.83	76.5	61.62	76.5" placeholders="1" id="sMgRlcVJ20DVUm7yUbX1-164">
          <mxCell style="whiteSpace=wrap;html=1;" vertex="1" parent="1">
            <mxGeometry x="20" y="11430" width="140" height="30" as="geometry" />
          </mxCell>
        </UserObject>
        <UserObject label="%temperatureLow_temperatureHigh_temperatureMin_temperatureMax%" temperatureLow_temperatureHigh_temperatureMin_temperatureMax="63.08	83.37	66.83	83.37" placeholders="1" id="sMgRlcVJ20DVUm7yUbX1-165">
          <mxCell style="whiteSpace=wrap;html=1;" vertex="1" parent="1">
            <mxGeometry x="20" y="11500" width="150" height="30" as="geometry" />
          </mxCell>
        </UserObject>
        <UserObject label="%temperatureLow_temperatureHigh_temperatureMin_temperatureMax%" temperatureLow_temperatureHigh_temperatureMin_temperatureMax="58.52	74.33	63.08	74.33" placeholders="1" id="sMgRlcVJ20DVUm7yUbX1-166">
          <mxCell style="whiteSpace=wrap;html=1;" vertex="1" parent="1">
            <mxGeometry x="20" y="11570" width="150" height="30" as="geometry" />
          </mxCell>
        </UserObject>
        <UserObject label="%temperatureLow_temperatureHigh_temperatureMin_temperatureMax%" temperatureLow_temperatureHigh_temperatureMin_temperatureMax="61.52	82.78	58.52	82.78" placeholders="1" id="sMgRlcVJ20DVUm7yUbX1-167">
          <mxCell style="whiteSpace=wrap;html=1;" vertex="1" parent="1">
            <mxGeometry x="20" y="11640" width="150" height="30" as="geometry" />
          </mxCell>
        </UserObject>
        <UserObject label="%temperatureLow_temperatureHigh_temperatureMin_temperatureMax%" temperatureLow_temperatureHigh_temperatureMin_temperatureMax="69.09	88.69	61.52	88.69" placeholders="1" id="sMgRlcVJ20DVUm7yUbX1-168">
          <mxCell style="whiteSpace=wrap;html=1;" vertex="1" parent="1">
            <mxGeometry x="20" y="11710" width="150" height="30" as="geometry" />
          </mxCell>
        </UserObject>
        <UserObject label="%temperatureLow_temperatureHigh_temperatureMin_temperatureMax%" temperatureLow_temperatureHigh_temperatureMin_temperatureMax="75.26	90.32	69.09	90.32" placeholders="1" id="sMgRlcVJ20DVUm7yUbX1-169">
          <mxCell style="whiteSpace=wrap;html=1;" vertex="1" parent="1">
            <mxGeometry x="20" y="11780" width="150" height="30" as="geometry" />
          </mxCell>
        </UserObject>
        <UserObject label="%temperatureLow_temperatureHigh_temperatureMin_temperatureMax%" temperatureLow_temperatureHigh_temperatureMin_temperatureMax="67.23	86.78	73.5	86.78" placeholders="1" id="sMgRlcVJ20DVUm7yUbX1-170">
          <mxCell style="whiteSpace=wrap;html=1;" vertex="1" parent="1">
            <mxGeometry x="20" y="11850" width="150" height="30" as="geometry" />
          </mxCell>
        </UserObject>
        <UserObject label="%temperatureLow_temperatureHigh_temperatureMin_temperatureMax%" temperatureLow_temperatureHigh_temperatureMin_temperatureMax="66.09	81.23	67.23	81.23" placeholders="1" id="sMgRlcVJ20DVUm7yUbX1-171">
          <mxCell style="whiteSpace=wrap;html=1;" vertex="1" parent="1">
            <mxGeometry x="20" y="11920" width="150" height="30" as="geometry" />
          </mxCell>
        </UserObject>
        <UserObject label="%temperatureLow_temperatureHigh_temperatureMin_temperatureMax%" temperatureLow_temperatureHigh_temperatureMin_temperatureMax="66.59	83.23	66.09	83.23" placeholders="1" id="sMgRlcVJ20DVUm7yUbX1-172">
          <mxCell style="whiteSpace=wrap;html=1;" vertex="1" parent="1">
            <mxGeometry x="20" y="11990" width="150" height="30" as="geometry" />
          </mxCell>
        </UserObject>
        <UserObject label="%temperatureLow_temperatureHigh_temperatureMin_temperatureMax%" temperatureLow_temperatureHigh_temperatureMin_temperatureMax="63.2	72.14	65.8	72.42" placeholders="1" id="sMgRlcVJ20DVUm7yUbX1-173">
          <mxCell style="whiteSpace=wrap;html=1;" vertex="1" parent="1">
            <mxGeometry x="20" y="12060" width="140" height="30" as="geometry" />
          </mxCell>
        </UserObject>
        <UserObject label="%temperatureLow_temperatureHigh_temperatureMin_temperatureMax%" temperatureLow_temperatureHigh_temperatureMin_temperatureMax="65.42	66.65	63.2	66.65" placeholders="1" id="sMgRlcVJ20DVUm7yUbX1-174">
          <mxCell style="whiteSpace=wrap;html=1;" vertex="1" parent="1">
            <mxGeometry x="20" y="12130" width="150" height="30" as="geometry" />
          </mxCell>
        </UserObject>
        <UserObject label="%temperatureLow_temperatureHigh_temperatureMin_temperatureMax%" temperatureLow_temperatureHigh_temperatureMin_temperatureMax="66.69	83.18	65.42	83.18" placeholders="1" id="sMgRlcVJ20DVUm7yUbX1-175">
          <mxCell style="whiteSpace=wrap;html=1;" vertex="1" parent="1">
            <mxGeometry x="20" y="12200" width="150" height="30" as="geometry" />
          </mxCell>
        </UserObject>
        <UserObject label="%temperatureLow_temperatureHigh_temperatureMin_temperatureMax%" temperatureLow_temperatureHigh_temperatureMin_temperatureMax="61.25	80.24	66.69	80.24" placeholders="1" id="sMgRlcVJ20DVUm7yUbX1-176">
          <mxCell style="whiteSpace=wrap;html=1;" vertex="1" parent="1">
            <mxGeometry x="20" y="12270" width="150" height="30" as="geometry" />
          </mxCell>
        </UserObject>
        <UserObject label="%temperatureLow_temperatureHigh_temperatureMin_temperatureMax%" temperatureLow_temperatureHigh_temperatureMin_temperatureMax="63.18	75.49	61.25	75.49" placeholders="1" id="sMgRlcVJ20DVUm7yUbX1-177">
          <mxCell style="whiteSpace=wrap;html=1;" vertex="1" parent="1">
            <mxGeometry x="20" y="12340" width="150" height="30" as="geometry" />
          </mxCell>
        </UserObject>
        <UserObject label="%temperatureLow_temperatureHigh_temperatureMin_temperatureMax%" temperatureLow_temperatureHigh_temperatureMin_temperatureMax="69.49	72.35	63.18	72.35" placeholders="1" id="sMgRlcVJ20DVUm7yUbX1-178">
          <mxCell style="whiteSpace=wrap;html=1;" vertex="1" parent="1">
            <mxGeometry x="20" y="12410" width="150" height="30" as="geometry" />
          </mxCell>
        </UserObject>
        <UserObject label="%temperatureLow_temperatureHigh_temperatureMin_temperatureMax%" temperatureLow_temperatureHigh_temperatureMin_temperatureMax="69.48	82.33	69.87	82.33" placeholders="1" id="sMgRlcVJ20DVUm7yUbX1-179">
          <mxCell style="whiteSpace=wrap;html=1;" vertex="1" parent="1">
            <mxGeometry x="20" y="12480" width="150" height="30" as="geometry" />
          </mxCell>
        </UserObject>
        <UserObject label="%temperatureLow_temperatureHigh_temperatureMin_temperatureMax%" temperatureLow_temperatureHigh_temperatureMin_temperatureMax="69.46	89.17	69.48	89.17" placeholders="1" id="sMgRlcVJ20DVUm7yUbX1-180">
          <mxCell style="whiteSpace=wrap;html=1;" vertex="1" parent="1">
            <mxGeometry x="20" y="12550" width="150" height="30" as="geometry" />
          </mxCell>
        </UserObject>
        <UserObject label="%temperatureLow_temperatureHigh_temperatureMin_temperatureMax%" temperatureLow_temperatureHigh_temperatureMin_temperatureMax="74.69	92.16	69.46	92.16" placeholders="1" id="sMgRlcVJ20DVUm7yUbX1-181">
          <mxCell style="whiteSpace=wrap;html=1;" vertex="1" parent="1">
            <mxGeometry x="20" y="12620" width="150" height="30" as="geometry" />
          </mxCell>
        </UserObject>
        <UserObject label="%temperatureLow_temperatureHigh_temperatureMin_temperatureMax%" temperatureLow_temperatureHigh_temperatureMin_temperatureMax="74.07	94.21	74.69	94.21" placeholders="1" id="sMgRlcVJ20DVUm7yUbX1-182">
          <mxCell style="whiteSpace=wrap;html=1;" vertex="1" parent="1">
            <mxGeometry x="20" y="12690" width="150" height="30" as="geometry" />
          </mxCell>
        </UserObject>
        <UserObject label="%temperatureLow_temperatureHigh_temperatureMin_temperatureMax%" temperatureLow_temperatureHigh_temperatureMin_temperatureMax="76.01	93.36	74.07	93.36" placeholders="1" id="sMgRlcVJ20DVUm7yUbX1-183">
          <mxCell style="whiteSpace=wrap;html=1;" vertex="1" parent="1">
            <mxGeometry x="20" y="12760" width="150" height="30" as="geometry" />
          </mxCell>
        </UserObject>
        <UserObject label="%temperatureLow_temperatureHigh_temperatureMin_temperatureMax%" temperatureLow_temperatureHigh_temperatureMin_temperatureMax="74.5	90.88	76.01	90.88" placeholders="1" id="sMgRlcVJ20DVUm7yUbX1-184">
          <mxCell style="whiteSpace=wrap;html=1;" vertex="1" parent="1">
            <mxGeometry x="20" y="12830" width="150" height="30" as="geometry" />
          </mxCell>
        </UserObject>
        <UserObject label="%temperatureLow_temperatureHigh_temperatureMin_temperatureMax%" temperatureLow_temperatureHigh_temperatureMin_temperatureMax="74.26	86.46	74.5	86.46" placeholders="1" id="sMgRlcVJ20DVUm7yUbX1-185">
          <mxCell style="whiteSpace=wrap;html=1;" vertex="1" parent="1">
            <mxGeometry x="20" y="12900" width="150" height="30" as="geometry" />
          </mxCell>
        </UserObject>
        <UserObject label="%temperatureLow_temperatureHigh_temperatureMin_temperatureMax%" temperatureLow_temperatureHigh_temperatureMin_temperatureMax="74.78	88.47	74.26	88.47" placeholders="1" id="sMgRlcVJ20DVUm7yUbX1-186">
          <mxCell style="whiteSpace=wrap;html=1;" vertex="1" parent="1">
            <mxGeometry x="20" y="12970" width="150" height="30" as="geometry" />
          </mxCell>
        </UserObject>
        <UserObject label="%temperatureLow_temperatureHigh_temperatureMin_temperatureMax%" temperatureLow_temperatureHigh_temperatureMin_temperatureMax="61.96	81.13	71.82	81.13" placeholders="1" id="sMgRlcVJ20DVUm7yUbX1-187">
          <mxCell style="whiteSpace=wrap;html=1;" vertex="1" parent="1">
            <mxGeometry x="20" y="13040" width="150" height="30" as="geometry" />
          </mxCell>
        </UserObject>
        <UserObject label="%temperatureLow_temperatureHigh_temperatureMin_temperatureMax%" temperatureLow_temperatureHigh_temperatureMin_temperatureMax="59.45	75.37	61.96	75.37" placeholders="1" id="sMgRlcVJ20DVUm7yUbX1-188">
          <mxCell style="whiteSpace=wrap;html=1;" vertex="1" parent="1">
            <mxGeometry x="20" y="13110" width="150" height="30" as="geometry" />
          </mxCell>
        </UserObject>
        <UserObject label="%temperatureLow_temperatureHigh_temperatureMin_temperatureMax%" temperatureLow_temperatureHigh_temperatureMin_temperatureMax="62.39	81.49	59.45	81.49" placeholders="1" id="sMgRlcVJ20DVUm7yUbX1-189">
          <mxCell style="whiteSpace=wrap;html=1;" vertex="1" parent="1">
            <mxGeometry x="20" y="13180" width="150" height="30" as="geometry" />
          </mxCell>
        </UserObject>
        <UserObject label="%temperatureLow_temperatureHigh_temperatureMin_temperatureMax%" temperatureLow_temperatureHigh_temperatureMin_temperatureMax="67.33	86.5	62.39	86.5" placeholders="1" id="sMgRlcVJ20DVUm7yUbX1-190">
          <mxCell style="whiteSpace=wrap;html=1;" vertex="1" parent="1">
            <mxGeometry x="20" y="13250" width="140" height="30" as="geometry" />
          </mxCell>
        </UserObject>
        <UserObject label="%temperatureLow_temperatureHigh_temperatureMin_temperatureMax%" temperatureLow_temperatureHigh_temperatureMin_temperatureMax="74.14	92.02	67.33	92.02" placeholders="1" id="sMgRlcVJ20DVUm7yUbX1-191">
          <mxCell style="whiteSpace=wrap;html=1;" vertex="1" parent="1">
            <mxGeometry x="20" y="13320" width="150" height="30" as="geometry" />
          </mxCell>
        </UserObject>
        <UserObject label="%temperatureLow_temperatureHigh_temperatureMin_temperatureMax%" temperatureLow_temperatureHigh_temperatureMin_temperatureMax="69.01	85.91	73.07	85.91" placeholders="1" id="sMgRlcVJ20DVUm7yUbX1-192">
          <mxCell style="whiteSpace=wrap;html=1;" vertex="1" parent="1">
            <mxGeometry x="20" y="13390" width="150" height="30" as="geometry" />
          </mxCell>
        </UserObject>
        <UserObject label="%temperatureLow_temperatureHigh_temperatureMin_temperatureMax%" temperatureLow_temperatureHigh_temperatureMin_temperatureMax="65.45	82.42	69.01	82.42" placeholders="1" id="sMgRlcVJ20DVUm7yUbX1-193">
          <mxCell style="whiteSpace=wrap;html=1;" vertex="1" parent="1">
            <mxGeometry x="20" y="13460" width="150" height="30" as="geometry" />
          </mxCell>
        </UserObject>
        <UserObject label="%temperatureLow_temperatureHigh_temperatureMin_temperatureMax%" temperatureLow_temperatureHigh_temperatureMin_temperatureMax="67.83	82.99	65.45	82.99" placeholders="1" id="sMgRlcVJ20DVUm7yUbX1-194">
          <mxCell style="whiteSpace=wrap;html=1;" vertex="1" parent="1">
            <mxGeometry x="20" y="13530" width="150" height="30" as="geometry" />
          </mxCell>
        </UserObject>
        <UserObject label="%temperatureLow_temperatureHigh_temperatureMin_temperatureMax%" temperatureLow_temperatureHigh_temperatureMin_temperatureMax="70.23	88.42	67.83	88.42" placeholders="1" id="sMgRlcVJ20DVUm7yUbX1-195">
          <mxCell style="whiteSpace=wrap;html=1;" vertex="1" parent="1">
            <mxGeometry x="20" y="13600" width="150" height="30" as="geometry" />
          </mxCell>
        </UserObject>
        <UserObject label="%temperatureLow_temperatureHigh_temperatureMin_temperatureMax%" temperatureLow_temperatureHigh_temperatureMin_temperatureMax="72.35	83.73	70.23	83.73" placeholders="1" id="sMgRlcVJ20DVUm7yUbX1-196">
          <mxCell style="whiteSpace=wrap;html=1;" vertex="1" parent="1">
            <mxGeometry x="20" y="13670" width="150" height="30" as="geometry" />
          </mxCell>
        </UserObject>
        <UserObject label="%temperatureLow_temperatureHigh_temperatureMin_temperatureMax%" temperatureLow_temperatureHigh_temperatureMin_temperatureMax="75.4	89.33	72.35	89.33" placeholders="1" id="sMgRlcVJ20DVUm7yUbX1-197">
          <mxCell style="whiteSpace=wrap;html=1;" vertex="1" parent="1">
            <mxGeometry x="20" y="13740" width="150" height="30" as="geometry" />
          </mxCell>
        </UserObject>
        <UserObject label="%temperatureLow_temperatureHigh_temperatureMin_temperatureMax%" temperatureLow_temperatureHigh_temperatureMin_temperatureMax="66.82	86.84	71.62	86.84" placeholders="1" id="sMgRlcVJ20DVUm7yUbX1-198">
          <mxCell style="whiteSpace=wrap;html=1;" vertex="1" parent="1">
            <mxGeometry x="20" y="13810" width="150" height="30" as="geometry" />
          </mxCell>
        </UserObject>
        <UserObject label="%temperatureLow_temperatureHigh_temperatureMin_temperatureMax%" temperatureLow_temperatureHigh_temperatureMin_temperatureMax="62.4	83.32	66.82	83.32" placeholders="1" id="sMgRlcVJ20DVUm7yUbX1-199">
          <mxCell style="whiteSpace=wrap;html=1;" vertex="1" parent="1">
            <mxGeometry x="20" y="13880" width="150" height="30" as="geometry" />
          </mxCell>
        </UserObject>
        <UserObject label="%temperatureLow_temperatureHigh_temperatureMin_temperatureMax%" temperatureLow_temperatureHigh_temperatureMin_temperatureMax="64.09	81.02	62.4	81.02" placeholders="1" id="sMgRlcVJ20DVUm7yUbX1-200">
          <mxCell style="whiteSpace=wrap;html=1;" vertex="1" parent="1">
            <mxGeometry x="20" y="13950" width="150" height="30" as="geometry" />
          </mxCell>
        </UserObject>
        <UserObject label="%temperatureLow_temperatureHigh_temperatureMin_temperatureMax%" temperatureLow_temperatureHigh_temperatureMin_temperatureMax="65.91	80.77	64.09	80.77" placeholders="1" id="sMgRlcVJ20DVUm7yUbX1-201">
          <mxCell style="whiteSpace=wrap;html=1;" vertex="1" parent="1">
            <mxGeometry x="20" y="14020" width="150" height="30" as="geometry" />
          </mxCell>
        </UserObject>
        <UserObject label="%temperatureLow_temperatureHigh_temperatureMin_temperatureMax%" temperatureLow_temperatureHigh_temperatureMin_temperatureMax="65.62	75.57	65.62	75.57" placeholders="1" id="sMgRlcVJ20DVUm7yUbX1-202">
          <mxCell style="whiteSpace=wrap;html=1;" vertex="1" parent="1">
            <mxGeometry x="20" y="14090" width="150" height="30" as="geometry" />
          </mxCell>
        </UserObject>
        <UserObject label="%temperatureLow_temperatureHigh_temperatureMin_temperatureMax%" temperatureLow_temperatureHigh_temperatureMin_temperatureMax="74.35	80	68.52	80" placeholders="1" id="sMgRlcVJ20DVUm7yUbX1-203">
          <mxCell style="whiteSpace=wrap;html=1;" vertex="1" parent="1">
            <mxGeometry x="20" y="14160" width="120" height="30" as="geometry" />
          </mxCell>
        </UserObject>
        <UserObject label="%temperatureLow_temperatureHigh_temperatureMin_temperatureMax%" temperatureLow_temperatureHigh_temperatureMin_temperatureMax="75.54	81.01	74.21	81.01" placeholders="1" id="sMgRlcVJ20DVUm7yUbX1-204">
          <mxCell style="whiteSpace=wrap;html=1;" vertex="1" parent="1">
            <mxGeometry x="20" y="14230" width="150" height="30" as="geometry" />
          </mxCell>
        </UserObject>
        <UserObject label="%temperatureLow_temperatureHigh_temperatureMin_temperatureMax%" temperatureLow_temperatureHigh_temperatureMin_temperatureMax="73.13	82.87	75.54	82.87" placeholders="1" id="sMgRlcVJ20DVUm7yUbX1-205">
          <mxCell style="whiteSpace=wrap;html=1;" vertex="1" parent="1">
            <mxGeometry x="20" y="14300" width="150" height="30" as="geometry" />
          </mxCell>
        </UserObject>
        <UserObject label="%temperatureLow_temperatureHigh_temperatureMin_temperatureMax%" temperatureLow_temperatureHigh_temperatureMin_temperatureMax="72.41	78.57	73.13	78.57" placeholders="1" id="sMgRlcVJ20DVUm7yUbX1-206">
          <mxCell style="whiteSpace=wrap;html=1;" vertex="1" parent="1">
            <mxGeometry x="20" y="14370" width="150" height="30" as="geometry" />
          </mxCell>
        </UserObject>
        <UserObject label="%temperatureLow_temperatureHigh_temperatureMin_temperatureMax%" temperatureLow_temperatureHigh_temperatureMin_temperatureMax="71.53	85.84	72.41	85.84" placeholders="1" id="sMgRlcVJ20DVUm7yUbX1-207">
          <mxCell style="whiteSpace=wrap;html=1;" vertex="1" parent="1">
            <mxGeometry x="20" y="14440" width="150" height="30" as="geometry" />
          </mxCell>
        </UserObject>
        <UserObject label="%temperatureLow_temperatureHigh_temperatureMin_temperatureMax%" temperatureLow_temperatureHigh_temperatureMin_temperatureMax="68.93	86.14	71.33	86.14" placeholders="1" id="sMgRlcVJ20DVUm7yUbX1-208">
          <mxCell style="whiteSpace=wrap;html=1;" vertex="1" parent="1">
            <mxGeometry x="20" y="14510" width="150" height="30" as="geometry" />
          </mxCell>
        </UserObject>
        <UserObject label="%temperatureLow_temperatureHigh_temperatureMin_temperatureMax%" temperatureLow_temperatureHigh_temperatureMin_temperatureMax="68.66	84.48	68.93	84.48" placeholders="1" id="sMgRlcVJ20DVUm7yUbX1-209">
          <mxCell style="whiteSpace=wrap;html=1;" vertex="1" parent="1">
            <mxGeometry x="20" y="14580" width="150" height="30" as="geometry" />
          </mxCell>
        </UserObject>
        <UserObject label="%temperatureLow_temperatureHigh_temperatureMin_temperatureMax%" temperatureLow_temperatureHigh_temperatureMin_temperatureMax="65.73	81.42	68.66	81.42" placeholders="1" id="sMgRlcVJ20DVUm7yUbX1-210">
          <mxCell style="whiteSpace=wrap;html=1;" vertex="1" parent="1">
            <mxGeometry x="20" y="14650" width="150" height="30" as="geometry" />
          </mxCell>
        </UserObject>
        <UserObject label="%temperatureLow_temperatureHigh_temperatureMin_temperatureMax%" temperatureLow_temperatureHigh_temperatureMin_temperatureMax="65.79	78	65.73	78" placeholders="1" id="sMgRlcVJ20DVUm7yUbX1-211">
          <mxCell style="whiteSpace=wrap;html=1;" vertex="1" parent="1">
            <mxGeometry x="20" y="14720" width="120" height="30" as="geometry" />
          </mxCell>
        </UserObject>
        <UserObject label="%temperatureLow_temperatureHigh_temperatureMin_temperatureMax%" temperatureLow_temperatureHigh_temperatureMin_temperatureMax="72.69	79.96	65.79	79.96" placeholders="1" id="sMgRlcVJ20DVUm7yUbX1-212">
          <mxCell style="whiteSpace=wrap;html=1;" vertex="1" parent="1">
            <mxGeometry x="20" y="14790" width="150" height="30" as="geometry" />
          </mxCell>
        </UserObject>
        <UserObject label="%temperatureLow_temperatureHigh_temperatureMin_temperatureMax%" temperatureLow_temperatureHigh_temperatureMin_temperatureMax="74.45	86.53	73.03	86.53" placeholders="1" id="sMgRlcVJ20DVUm7yUbX1-213">
          <mxCell style="whiteSpace=wrap;html=1;" vertex="1" parent="1">
            <mxGeometry x="20" y="14860" width="150" height="30" as="geometry" />
          </mxCell>
        </UserObject>
        <UserObject label="%temperatureLow_temperatureHigh_temperatureMin_temperatureMax%" temperatureLow_temperatureHigh_temperatureMin_temperatureMax="74.95	85.36	74.45	85.36" placeholders="1" id="sMgRlcVJ20DVUm7yUbX1-214">
          <mxCell style="whiteSpace=wrap;html=1;" vertex="1" parent="1">
            <mxGeometry x="20" y="14930" width="150" height="30" as="geometry" />
          </mxCell>
        </UserObject>
        <UserObject label="%temperatureLow_temperatureHigh_temperatureMin_temperatureMax%" temperatureLow_temperatureHigh_temperatureMin_temperatureMax="74.45	83.67	74.76	83.67" placeholders="1" id="sMgRlcVJ20DVUm7yUbX1-215">
          <mxCell style="whiteSpace=wrap;html=1;" vertex="1" parent="1">
            <mxGeometry x="20" y="15000" width="150" height="30" as="geometry" />
          </mxCell>
        </UserObject>
        <UserObject label="%temperatureLow_temperatureHigh_temperatureMin_temperatureMax%" temperatureLow_temperatureHigh_temperatureMin_temperatureMax="71.3	86.24	73.04	86.24" placeholders="1" id="sMgRlcVJ20DVUm7yUbX1-216">
          <mxCell style="whiteSpace=wrap;html=1;" vertex="1" parent="1">
            <mxGeometry x="20" y="15070" width="150" height="30" as="geometry" />
          </mxCell>
        </UserObject>
        <UserObject label="%temperatureLow_temperatureHigh_temperatureMin_temperatureMax%" temperatureLow_temperatureHigh_temperatureMin_temperatureMax="74.38	89.86	71.3	89.86" placeholders="1" id="sMgRlcVJ20DVUm7yUbX1-217">
          <mxCell style="whiteSpace=wrap;html=1;" vertex="1" parent="1">
            <mxGeometry x="20" y="15140" width="150" height="30" as="geometry" />
          </mxCell>
        </UserObject>
        <UserObject label="%temperatureLow_temperatureHigh_temperatureMin_temperatureMax%" temperatureLow_temperatureHigh_temperatureMin_temperatureMax="75.37	91.51	74.38	91.51" placeholders="1" id="sMgRlcVJ20DVUm7yUbX1-218">
          <mxCell style="whiteSpace=wrap;html=1;" vertex="1" parent="1">
            <mxGeometry x="20" y="15210" width="150" height="30" as="geometry" />
          </mxCell>
        </UserObject>
        <UserObject label="%temperatureLow_temperatureHigh_temperatureMin_temperatureMax%" temperatureLow_temperatureHigh_temperatureMin_temperatureMax="73.75	88.75	75.11	88.75" placeholders="1" id="sMgRlcVJ20DVUm7yUbX1-219">
          <mxCell style="whiteSpace=wrap;html=1;" vertex="1" parent="1">
            <mxGeometry x="20" y="15280" width="150" height="30" as="geometry" />
          </mxCell>
        </UserObject>
        <UserObject label="%temperatureLow_temperatureHigh_temperatureMin_temperatureMax%" temperatureLow_temperatureHigh_temperatureMin_temperatureMax="74.83	89.47	73.75	89.47" placeholders="1" id="sMgRlcVJ20DVUm7yUbX1-220">
          <mxCell style="whiteSpace=wrap;html=1;" vertex="1" parent="1">
            <mxGeometry x="20" y="15350" width="150" height="30" as="geometry" />
          </mxCell>
        </UserObject>
        <UserObject label="%temperatureLow_temperatureHigh_temperatureMin_temperatureMax%" temperatureLow_temperatureHigh_temperatureMin_temperatureMax="70.1	88.01	74.83	88.01" placeholders="1" id="sMgRlcVJ20DVUm7yUbX1-221">
          <mxCell style="whiteSpace=wrap;html=1;" vertex="1" parent="1">
            <mxGeometry x="20" y="15420" width="150" height="30" as="geometry" />
          </mxCell>
        </UserObject>
        <UserObject label="%temperatureLow_temperatureHigh_temperatureMin_temperatureMax%" temperatureLow_temperatureHigh_temperatureMin_temperatureMax="71.92	86.48	70.1	86.48" placeholders="1" id="sMgRlcVJ20DVUm7yUbX1-222">
          <mxCell style="whiteSpace=wrap;html=1;" vertex="1" parent="1">
            <mxGeometry x="20" y="15490" width="150" height="30" as="geometry" />
          </mxCell>
        </UserObject>
        <UserObject label="%temperatureLow_temperatureHigh_temperatureMin_temperatureMax%" temperatureLow_temperatureHigh_temperatureMin_temperatureMax="71.67	75.41	70.96	77.08" placeholders="1" id="sMgRlcVJ20DVUm7yUbX1-223">
          <mxCell style="whiteSpace=wrap;html=1;" vertex="1" parent="1">
            <mxGeometry x="20" y="15560" width="150" height="30" as="geometry" />
          </mxCell>
        </UserObject>
        <UserObject label="%temperatureLow_temperatureHigh_temperatureMin_temperatureMax%" temperatureLow_temperatureHigh_temperatureMin_temperatureMax="72.76	81.7	71.67	81.7" placeholders="1" id="sMgRlcVJ20DVUm7yUbX1-224">
          <mxCell style="whiteSpace=wrap;html=1;" vertex="1" parent="1">
            <mxGeometry x="20" y="15630" width="140" height="30" as="geometry" />
          </mxCell>
        </UserObject>
        <UserObject label="%temperatureLow_temperatureHigh_temperatureMin_temperatureMax%" temperatureLow_temperatureHigh_temperatureMin_temperatureMax="70.67	74.59	72.09	74.75" placeholders="1" id="sMgRlcVJ20DVUm7yUbX1-225">
          <mxCell style="whiteSpace=wrap;html=1;" vertex="1" parent="1">
            <mxGeometry x="20" y="15700" width="150" height="30" as="geometry" />
          </mxCell>
        </UserObject>
        <UserObject label="%temperatureLow_temperatureHigh_temperatureMin_temperatureMax%" temperatureLow_temperatureHigh_temperatureMin_temperatureMax="70.01	80.41	70.67	80.41" placeholders="1" id="sMgRlcVJ20DVUm7yUbX1-226">
          <mxCell style="whiteSpace=wrap;html=1;" vertex="1" parent="1">
            <mxGeometry x="20" y="15770" width="150" height="30" as="geometry" />
          </mxCell>
        </UserObject>
        <UserObject label="%temperatureLow_temperatureHigh_temperatureMin_temperatureMax%" temperatureLow_temperatureHigh_temperatureMin_temperatureMax="73.3	87.63	70.01	87.63" placeholders="1" id="sMgRlcVJ20DVUm7yUbX1-227">
          <mxCell style="whiteSpace=wrap;html=1;" vertex="1" parent="1">
            <mxGeometry x="20" y="15840" width="150" height="30" as="geometry" />
          </mxCell>
        </UserObject>
        <UserObject label="%temperatureLow_temperatureHigh_temperatureMin_temperatureMax%" temperatureLow_temperatureHigh_temperatureMin_temperatureMax="74.2	88.62	73.3	88.62" placeholders="1" id="sMgRlcVJ20DVUm7yUbX1-228">
          <mxCell style="whiteSpace=wrap;html=1;" vertex="1" parent="1">
            <mxGeometry x="20" y="15910" width="140" height="30" as="geometry" />
          </mxCell>
        </UserObject>
        <UserObject label="%temperatureLow_temperatureHigh_temperatureMin_temperatureMax%" temperatureLow_temperatureHigh_temperatureMin_temperatureMax="73.22	87.32	74.2	87.32" placeholders="1" id="sMgRlcVJ20DVUm7yUbX1-229">
          <mxCell style="whiteSpace=wrap;html=1;" vertex="1" parent="1">
            <mxGeometry x="20" y="15980" width="150" height="30" as="geometry" />
          </mxCell>
        </UserObject>
        <UserObject label="%temperatureLow_temperatureHigh_temperatureMin_temperatureMax%" temperatureLow_temperatureHigh_temperatureMin_temperatureMax="68.63	85.35	71.73	85.35" placeholders="1" id="sMgRlcVJ20DVUm7yUbX1-230">
          <mxCell style="whiteSpace=wrap;html=1;" vertex="1" parent="1">
            <mxGeometry x="20" y="16050" width="150" height="30" as="geometry" />
          </mxCell>
        </UserObject>
        <UserObject label="%temperatureLow_temperatureHigh_temperatureMin_temperatureMax%" temperatureLow_temperatureHigh_temperatureMin_temperatureMax="67.46	72.49	68.63	72.49" placeholders="1" id="sMgRlcVJ20DVUm7yUbX1-231">
          <mxCell style="whiteSpace=wrap;html=1;" vertex="1" parent="1">
            <mxGeometry x="20" y="16120" width="150" height="30" as="geometry" />
          </mxCell>
        </UserObject>
        <UserObject label="%temperatureLow_temperatureHigh_temperatureMin_temperatureMax%" temperatureLow_temperatureHigh_temperatureMin_temperatureMax="66.32	74.15	67.46	74.15" placeholders="1" id="sMgRlcVJ20DVUm7yUbX1-232">
          <mxCell style="whiteSpace=wrap;html=1;" vertex="1" parent="1">
            <mxGeometry x="20" y="16190" width="150" height="30" as="geometry" />
          </mxCell>
        </UserObject>
        <UserObject label="%temperatureLow_temperatureHigh_temperatureMin_temperatureMax%" temperatureLow_temperatureHigh_temperatureMin_temperatureMax="72.14	75.95	66.32	75.95" placeholders="1" id="sMgRlcVJ20DVUm7yUbX1-233">
          <mxCell style="whiteSpace=wrap;html=1;" vertex="1" parent="1">
            <mxGeometry x="20" y="16260" width="150" height="30" as="geometry" />
          </mxCell>
        </UserObject>
        <UserObject label="%temperatureLow_temperatureHigh_temperatureMin_temperatureMax%" temperatureLow_temperatureHigh_temperatureMin_temperatureMax="65.84	83.05	71.93	83.05" placeholders="1" id="sMgRlcVJ20DVUm7yUbX1-234">
          <mxCell style="whiteSpace=wrap;html=1;" vertex="1" parent="1">
            <mxGeometry x="20" y="16330" width="150" height="30" as="geometry" />
          </mxCell>
        </UserObject>
        <UserObject label="%temperatureLow_temperatureHigh_temperatureMin_temperatureMax%" temperatureLow_temperatureHigh_temperatureMin_temperatureMax="61.9	78.15	65.84	78.15" placeholders="1" id="sMgRlcVJ20DVUm7yUbX1-235">
          <mxCell style="whiteSpace=wrap;html=1;" vertex="1" parent="1">
            <mxGeometry x="20" y="16400" width="150" height="30" as="geometry" />
          </mxCell>
        </UserObject>
        <UserObject label="%temperatureLow_temperatureHigh_temperatureMin_temperatureMax%" temperatureLow_temperatureHigh_temperatureMin_temperatureMax="63.84	81.79	61.9	81.79" placeholders="1" id="sMgRlcVJ20DVUm7yUbX1-236">
          <mxCell style="whiteSpace=wrap;html=1;" vertex="1" parent="1">
            <mxGeometry x="20" y="16470" width="150" height="30" as="geometry" />
          </mxCell>
        </UserObject>
        <UserObject label="%temperatureLow_temperatureHigh_temperatureMin_temperatureMax%" temperatureLow_temperatureHigh_temperatureMin_temperatureMax="65	78.44	63.84	78.44" placeholders="1" id="sMgRlcVJ20DVUm7yUbX1-237">
          <mxCell style="whiteSpace=wrap;html=1;" vertex="1" parent="1">
            <mxGeometry x="20" y="16540" width="140" height="30" as="geometry" />
          </mxCell>
        </UserObject>
        <UserObject label="%temperatureLow_temperatureHigh_temperatureMin_temperatureMax%" temperatureLow_temperatureHigh_temperatureMin_temperatureMax="71.13	82.75	65	82.75" placeholders="1" id="sMgRlcVJ20DVUm7yUbX1-238">
          <mxCell style="whiteSpace=wrap;html=1;" vertex="1" parent="1">
            <mxGeometry x="20" y="16610" width="140" height="30" as="geometry" />
          </mxCell>
        </UserObject>
        <UserObject label="%temperatureLow_temperatureHigh_temperatureMin_temperatureMax%" temperatureLow_temperatureHigh_temperatureMin_temperatureMax="75.49	87.53	71.13	87.53" placeholders="1" id="sMgRlcVJ20DVUm7yUbX1-239">
          <mxCell style="whiteSpace=wrap;html=1;" vertex="1" parent="1">
            <mxGeometry x="20" y="16680" width="150" height="30" as="geometry" />
          </mxCell>
        </UserObject>
        <UserObject label="%temperatureLow_temperatureHigh_temperatureMin_temperatureMax%" temperatureLow_temperatureHigh_temperatureMin_temperatureMax="77.51	93.55	75.49	93.55" placeholders="1" id="sMgRlcVJ20DVUm7yUbX1-240">
          <mxCell style="whiteSpace=wrap;html=1;" vertex="1" parent="1">
            <mxGeometry x="20" y="16750" width="150" height="30" as="geometry" />
          </mxCell>
        </UserObject>
        <UserObject label="%temperatureLow_temperatureHigh_temperatureMin_temperatureMax%" temperatureLow_temperatureHigh_temperatureMin_temperatureMax="78.02	93.22	77.51	93.22" placeholders="1" id="sMgRlcVJ20DVUm7yUbX1-241">
          <mxCell style="whiteSpace=wrap;html=1;" vertex="1" parent="1">
            <mxGeometry x="20" y="16820" width="150" height="30" as="geometry" />
          </mxCell>
        </UserObject>
        <UserObject label="%temperatureLow_temperatureHigh_temperatureMin_temperatureMax%" temperatureLow_temperatureHigh_temperatureMin_temperatureMax="72.45	88.36	78.02	88.36" placeholders="1" id="sMgRlcVJ20DVUm7yUbX1-242">
          <mxCell style="whiteSpace=wrap;html=1;" vertex="1" parent="1">
            <mxGeometry x="20" y="16890" width="150" height="30" as="geometry" />
          </mxCell>
        </UserObject>
        <UserObject label="%temperatureLow_temperatureHigh_temperatureMin_temperatureMax%" temperatureLow_temperatureHigh_temperatureMin_temperatureMax="68.85	73.84	70.4	77.43" placeholders="1" id="sMgRlcVJ20DVUm7yUbX1-243">
          <mxCell style="whiteSpace=wrap;html=1;" vertex="1" parent="1">
            <mxGeometry x="20" y="16960" width="150" height="30" as="geometry" />
          </mxCell>
        </UserObject>
        <UserObject label="%temperatureLow_temperatureHigh_temperatureMin_temperatureMax%" temperatureLow_temperatureHigh_temperatureMin_temperatureMax="66.14	76.68	68.85	76.68" placeholders="1" id="sMgRlcVJ20DVUm7yUbX1-244">
          <mxCell style="whiteSpace=wrap;html=1;" vertex="1" parent="1">
            <mxGeometry x="20" y="17030" width="150" height="30" as="geometry" />
          </mxCell>
        </UserObject>
        <UserObject label="%temperatureLow_temperatureHigh_temperatureMin_temperatureMax%" temperatureLow_temperatureHigh_temperatureMin_temperatureMax="74.52	80.22	66.14	80.22" placeholders="1" id="sMgRlcVJ20DVUm7yUbX1-245">
          <mxCell style="whiteSpace=wrap;html=1;" vertex="1" parent="1">
            <mxGeometry x="20" y="17100" width="150" height="30" as="geometry" />
          </mxCell>
        </UserObject>
        <UserObject label="%temperatureLow_temperatureHigh_temperatureMin_temperatureMax%" temperatureLow_temperatureHigh_temperatureMin_temperatureMax="75.35	89.68	74.52	89.68" placeholders="1" id="sMgRlcVJ20DVUm7yUbX1-246">
          <mxCell style="whiteSpace=wrap;html=1;" vertex="1" parent="1">
            <mxGeometry x="20" y="17170" width="150" height="30" as="geometry" />
          </mxCell>
        </UserObject>
        <UserObject label="%temperatureLow_temperatureHigh_temperatureMin_temperatureMax%" temperatureLow_temperatureHigh_temperatureMin_temperatureMax="74.35	90.68	75.35	90.68" placeholders="1" id="sMgRlcVJ20DVUm7yUbX1-247">
          <mxCell style="whiteSpace=wrap;html=1;" vertex="1" parent="1">
            <mxGeometry x="20" y="17240" width="150" height="30" as="geometry" />
          </mxCell>
        </UserObject>
        <UserObject label="%temperatureLow_temperatureHigh_temperatureMin_temperatureMax%" temperatureLow_temperatureHigh_temperatureMin_temperatureMax="76.86	88.91	74.35	88.91" placeholders="1" id="sMgRlcVJ20DVUm7yUbX1-248">
          <mxCell style="whiteSpace=wrap;html=1;" vertex="1" parent="1">
            <mxGeometry x="20" y="17310" width="150" height="30" as="geometry" />
          </mxCell>
        </UserObject>
        <UserObject label="%temperatureLow_temperatureHigh_temperatureMin_temperatureMax%" temperatureLow_temperatureHigh_temperatureMin_temperatureMax="73.94	91.88	74.82	91.88" placeholders="1" id="sMgRlcVJ20DVUm7yUbX1-249">
          <mxCell style="whiteSpace=wrap;html=1;" vertex="1" parent="1">
            <mxGeometry x="20" y="17380" width="150" height="30" as="geometry" />
          </mxCell>
        </UserObject>
        <UserObject label="%temperatureLow_temperatureHigh_temperatureMin_temperatureMax%" temperatureLow_temperatureHigh_temperatureMin_temperatureMax="66.51	74.99	70.2	74.99" placeholders="1" id="sMgRlcVJ20DVUm7yUbX1-250">
          <mxCell style="whiteSpace=wrap;html=1;" vertex="1" parent="1">
            <mxGeometry x="20" y="17450" width="150" height="30" as="geometry" />
          </mxCell>
        </UserObject>
        <UserObject label="%temperatureLow_temperatureHigh_temperatureMin_temperatureMax%" temperatureLow_temperatureHigh_temperatureMin_temperatureMax="56.55	69.36	60.59	70.18" placeholders="1" id="sMgRlcVJ20DVUm7yUbX1-251">
          <mxCell style="whiteSpace=wrap;html=1;" vertex="1" parent="1">
            <mxGeometry x="20" y="17520" width="150" height="30" as="geometry" />
          </mxCell>
        </UserObject>
        <UserObject label="%temperatureLow_temperatureHigh_temperatureMin_temperatureMax%" temperatureLow_temperatureHigh_temperatureMin_temperatureMax="54.78	60.77	56.55	61.13" placeholders="1" id="sMgRlcVJ20DVUm7yUbX1-252">
          <mxCell style="whiteSpace=wrap;html=1;" vertex="1" parent="1">
            <mxGeometry x="20" y="17590" width="150" height="30" as="geometry" />
          </mxCell>
        </UserObject>
        <UserObject label="%temperatureLow_temperatureHigh_temperatureMin_temperatureMax%" temperatureLow_temperatureHigh_temperatureMin_temperatureMax="62.02	62.67	54.78	63.04" placeholders="1" id="sMgRlcVJ20DVUm7yUbX1-253">
          <mxCell style="whiteSpace=wrap;html=1;" vertex="1" parent="1">
            <mxGeometry x="20" y="17660" width="150" height="30" as="geometry" />
          </mxCell>
        </UserObject>
        <UserObject label="%temperatureLow_temperatureHigh_temperatureMin_temperatureMax%" temperatureLow_temperatureHigh_temperatureMin_temperatureMax="71.62	74.11	62.44	74.11" placeholders="1" id="sMgRlcVJ20DVUm7yUbX1-254">
          <mxCell style="whiteSpace=wrap;html=1;" vertex="1" parent="1">
            <mxGeometry x="20" y="17730" width="150" height="30" as="geometry" />
          </mxCell>
        </UserObject>
        <UserObject label="%temperatureLow_temperatureHigh_temperatureMin_temperatureMax%" temperatureLow_temperatureHigh_temperatureMin_temperatureMax="69.72	77	71.62	77" placeholders="1" id="sMgRlcVJ20DVUm7yUbX1-255">
          <mxCell style="whiteSpace=wrap;html=1;" vertex="1" parent="1">
            <mxGeometry x="20" y="17800" width="120" height="30" as="geometry" />
          </mxCell>
        </UserObject>
        <UserObject label="%temperatureLow_temperatureHigh_temperatureMin_temperatureMax%" temperatureLow_temperatureHigh_temperatureMin_temperatureMax="68.87	76.13	69.72	76.13" placeholders="1" id="sMgRlcVJ20DVUm7yUbX1-256">
          <mxCell style="whiteSpace=wrap;html=1;" vertex="1" parent="1">
            <mxGeometry x="20" y="17870" width="150" height="30" as="geometry" />
          </mxCell>
        </UserObject>
        <UserObject label="%temperatureLow_temperatureHigh_temperatureMin_temperatureMax%" temperatureLow_temperatureHigh_temperatureMin_temperatureMax="65.71	74.25	68.87	74.25" placeholders="1" id="sMgRlcVJ20DVUm7yUbX1-257">
          <mxCell style="whiteSpace=wrap;html=1;" vertex="1" parent="1">
            <mxGeometry x="20" y="17940" width="150" height="30" as="geometry" />
          </mxCell>
        </UserObject>
        <UserObject label="%temperatureLow_temperatureHigh_temperatureMin_temperatureMax%" temperatureLow_temperatureHigh_temperatureMin_temperatureMax="64.25	79	65.71	79" placeholders="1" id="sMgRlcVJ20DVUm7yUbX1-258">
          <mxCell style="whiteSpace=wrap;html=1;" vertex="1" parent="1">
            <mxGeometry x="20" y="18010" width="120" height="30" as="geometry" />
          </mxCell>
        </UserObject>
        <UserObject label="%temperatureLow_temperatureHigh_temperatureMin_temperatureMax%" temperatureLow_temperatureHigh_temperatureMin_temperatureMax="66.19	83.27	64.25	83.27" placeholders="1" id="sMgRlcVJ20DVUm7yUbX1-259">
          <mxCell style="whiteSpace=wrap;html=1;" vertex="1" parent="1">
            <mxGeometry x="20" y="18080" width="150" height="30" as="geometry" />
          </mxCell>
        </UserObject>
        <UserObject label="%temperatureLow_temperatureHigh_temperatureMin_temperatureMax%" temperatureLow_temperatureHigh_temperatureMin_temperatureMax="74.31	77.98	66.19	77.98" placeholders="1" id="sMgRlcVJ20DVUm7yUbX1-260">
          <mxCell style="whiteSpace=wrap;html=1;" vertex="1" parent="1">
            <mxGeometry x="20" y="18150" width="150" height="30" as="geometry" />
          </mxCell>
        </UserObject>
        <UserObject label="%temperatureLow_temperatureHigh_temperatureMin_temperatureMax%" temperatureLow_temperatureHigh_temperatureMin_temperatureMax="67.31	78.46	70.29	78.46" placeholders="1" id="sMgRlcVJ20DVUm7yUbX1-261">
          <mxCell style="whiteSpace=wrap;html=1;" vertex="1" parent="1">
            <mxGeometry x="20" y="18220" width="150" height="30" as="geometry" />
          </mxCell>
        </UserObject>
        <UserObject label="%temperatureLow_temperatureHigh_temperatureMin_temperatureMax%" temperatureLow_temperatureHigh_temperatureMin_temperatureMax="64.77	80.52	67.31	80.52" placeholders="1" id="sMgRlcVJ20DVUm7yUbX1-262">
          <mxCell style="whiteSpace=wrap;html=1;" vertex="1" parent="1">
            <mxGeometry x="20" y="18290" width="150" height="30" as="geometry" />
          </mxCell>
        </UserObject>
        <UserObject label="%temperatureLow_temperatureHigh_temperatureMin_temperatureMax%" temperatureLow_temperatureHigh_temperatureMin_temperatureMax="66.97	71.1	64.77	71.1" placeholders="1" id="sMgRlcVJ20DVUm7yUbX1-263">
          <mxCell style="whiteSpace=wrap;html=1;" vertex="1" parent="1">
            <mxGeometry x="20" y="18360" width="140" height="30" as="geometry" />
          </mxCell>
        </UserObject>
        <UserObject label="%temperatureLow_temperatureHigh_temperatureMin_temperatureMax%" temperatureLow_temperatureHigh_temperatureMin_temperatureMax="70.68	72.46	66.97	72.46" placeholders="1" id="sMgRlcVJ20DVUm7yUbX1-264">
          <mxCell style="whiteSpace=wrap;html=1;" vertex="1" parent="1">
            <mxGeometry x="20" y="18430" width="150" height="30" as="geometry" />
          </mxCell>
        </UserObject>
        <UserObject label="%temperatureLow_temperatureHigh_temperatureMin_temperatureMax%" temperatureLow_temperatureHigh_temperatureMin_temperatureMax="59.55	72.58	62.65	73.06" placeholders="1" id="sMgRlcVJ20DVUm7yUbX1-265">
          <mxCell style="whiteSpace=wrap;html=1;" vertex="1" parent="1">
            <mxGeometry x="20" y="18500" width="150" height="30" as="geometry" />
          </mxCell>
        </UserObject>
        <UserObject label="%temperatureLow_temperatureHigh_temperatureMin_temperatureMax%" temperatureLow_temperatureHigh_temperatureMin_temperatureMax="56.96	64.93	59.55	64.93" placeholders="1" id="sMgRlcVJ20DVUm7yUbX1-266">
          <mxCell style="whiteSpace=wrap;html=1;" vertex="1" parent="1">
            <mxGeometry x="20" y="18570" width="150" height="30" as="geometry" />
          </mxCell>
        </UserObject>
        <UserObject label="%temperatureLow_temperatureHigh_temperatureMin_temperatureMax%" temperatureLow_temperatureHigh_temperatureMin_temperatureMax="57.7	67.89	56.96	67.89" placeholders="1" id="sMgRlcVJ20DVUm7yUbX1-267">
          <mxCell style="whiteSpace=wrap;html=1;" vertex="1" parent="1">
            <mxGeometry x="20" y="18640" width="150" height="30" as="geometry" />
          </mxCell>
        </UserObject>
        <UserObject label="%temperatureLow_temperatureHigh_temperatureMin_temperatureMax%" temperatureLow_temperatureHigh_temperatureMin_temperatureMax="69.47	71.49	57.7	71.49" placeholders="1" id="sMgRlcVJ20DVUm7yUbX1-268">
          <mxCell style="whiteSpace=wrap;html=1;" vertex="1" parent="1">
            <mxGeometry x="20" y="18710" width="150" height="30" as="geometry" />
          </mxCell>
        </UserObject>
        <UserObject label="%temperatureLow_temperatureHigh_temperatureMin_temperatureMax%" temperatureLow_temperatureHigh_temperatureMin_temperatureMax="61.19	81.97	69.67	81.97" placeholders="1" id="sMgRlcVJ20DVUm7yUbX1-269">
          <mxCell style="whiteSpace=wrap;html=1;" vertex="1" parent="1">
            <mxGeometry x="20" y="18780" width="150" height="30" as="geometry" />
          </mxCell>
        </UserObject>
        <UserObject label="%temperatureLow_temperatureHigh_temperatureMin_temperatureMax%" temperatureLow_temperatureHigh_temperatureMin_temperatureMax="59.43	71.81	61.19	71.81" placeholders="1" id="sMgRlcVJ20DVUm7yUbX1-270">
          <mxCell style="whiteSpace=wrap;html=1;" vertex="1" parent="1">
            <mxGeometry x="20" y="18850" width="150" height="30" as="geometry" />
          </mxCell>
        </UserObject>
        <UserObject label="%temperatureLow_temperatureHigh_temperatureMin_temperatureMax%" temperatureLow_temperatureHigh_temperatureMin_temperatureMax="54.64	62.91	55.76	64.43" placeholders="1" id="sMgRlcVJ20DVUm7yUbX1-271">
          <mxCell style="whiteSpace=wrap;html=1;" vertex="1" parent="1">
            <mxGeometry x="20" y="18920" width="150" height="30" as="geometry" />
          </mxCell>
        </UserObject>
        <UserObject label="%temperatureLow_temperatureHigh_temperatureMin_temperatureMax%" temperatureLow_temperatureHigh_temperatureMin_temperatureMax="51.75	73.63	54.64	73.63" placeholders="1" id="sMgRlcVJ20DVUm7yUbX1-272">
          <mxCell style="whiteSpace=wrap;html=1;" vertex="1" parent="1">
            <mxGeometry x="20" y="18990" width="150" height="30" as="geometry" />
          </mxCell>
        </UserObject>
        <UserObject label="%temperatureLow_temperatureHigh_temperatureMin_temperatureMax%" temperatureLow_temperatureHigh_temperatureMin_temperatureMax="60.08	69.62	51.75	69.62" placeholders="1" id="sMgRlcVJ20DVUm7yUbX1-273">
          <mxCell style="whiteSpace=wrap;html=1;" vertex="1" parent="1">
            <mxGeometry x="20" y="19060" width="150" height="30" as="geometry" />
          </mxCell>
        </UserObject>
        <UserObject label="%temperatureLow_temperatureHigh_temperatureMin_temperatureMax%" temperatureLow_temperatureHigh_temperatureMin_temperatureMax="65.13	75.52	60.08	75.52" placeholders="1" id="sMgRlcVJ20DVUm7yUbX1-274">
          <mxCell style="whiteSpace=wrap;html=1;" vertex="1" parent="1">
            <mxGeometry x="20" y="19130" width="150" height="30" as="geometry" />
          </mxCell>
        </UserObject>
        <UserObject label="%temperatureLow_temperatureHigh_temperatureMin_temperatureMax%" temperatureLow_temperatureHigh_temperatureMin_temperatureMax="63.2	77.05	65.13	77.05" placeholders="1" id="sMgRlcVJ20DVUm7yUbX1-275">
          <mxCell style="whiteSpace=wrap;html=1;" vertex="1" parent="1">
            <mxGeometry x="20" y="19200" width="150" height="30" as="geometry" />
          </mxCell>
        </UserObject>
        <UserObject label="%temperatureLow_temperatureHigh_temperatureMin_temperatureMax%" temperatureLow_temperatureHigh_temperatureMin_temperatureMax="58.31	74.04	62.57	74.04" placeholders="1" id="sMgRlcVJ20DVUm7yUbX1-276">
          <mxCell style="whiteSpace=wrap;html=1;" vertex="1" parent="1">
            <mxGeometry x="20" y="19270" width="150" height="30" as="geometry" />
          </mxCell>
        </UserObject>
        <UserObject label="%temperatureLow_temperatureHigh_temperatureMin_temperatureMax%" temperatureLow_temperatureHigh_temperatureMin_temperatureMax="59.61	75.21	58.31	75.21" placeholders="1" id="sMgRlcVJ20DVUm7yUbX1-277">
          <mxCell style="whiteSpace=wrap;html=1;" vertex="1" parent="1">
            <mxGeometry x="20" y="19340" width="150" height="30" as="geometry" />
          </mxCell>
        </UserObject>
        <UserObject label="%temperatureLow_temperatureHigh_temperatureMin_temperatureMax%" temperatureLow_temperatureHigh_temperatureMin_temperatureMax="62.83	68.76	59.61	71.43" placeholders="1" id="sMgRlcVJ20DVUm7yUbX1-278">
          <mxCell style="whiteSpace=wrap;html=1;" vertex="1" parent="1">
            <mxGeometry x="20" y="19410" width="150" height="30" as="geometry" />
          </mxCell>
        </UserObject>
        <UserObject label="%temperatureLow_temperatureHigh_temperatureMin_temperatureMax%" temperatureLow_temperatureHigh_temperatureMin_temperatureMax="65.92	65.76	62.83	66.76" placeholders="1" id="sMgRlcVJ20DVUm7yUbX1-279">
          <mxCell style="whiteSpace=wrap;html=1;" vertex="1" parent="1">
            <mxGeometry x="20" y="19480" width="150" height="30" as="geometry" />
          </mxCell>
        </UserObject>
        <UserObject label="%temperatureLow_temperatureHigh_temperatureMin_temperatureMax%" temperatureLow_temperatureHigh_temperatureMin_temperatureMax="65.46	79.02	66.67	79.02" placeholders="1" id="sMgRlcVJ20DVUm7yUbX1-280">
          <mxCell style="whiteSpace=wrap;html=1;" vertex="1" parent="1">
            <mxGeometry x="20" y="19550" width="150" height="30" as="geometry" />
          </mxCell>
        </UserObject>
        <UserObject label="%temperatureLow_temperatureHigh_temperatureMin_temperatureMax%" temperatureLow_temperatureHigh_temperatureMin_temperatureMax="64.07	65.99	63.94	71.13" placeholders="1" id="sMgRlcVJ20DVUm7yUbX1-281">
          <mxCell style="whiteSpace=wrap;html=1;" vertex="1" parent="1">
            <mxGeometry x="20" y="19620" width="150" height="30" as="geometry" />
          </mxCell>
        </UserObject>
        <UserObject label="%temperatureLow_temperatureHigh_temperatureMin_temperatureMax%" temperatureLow_temperatureHigh_temperatureMin_temperatureMax="68.84	76.23	65.26	76.23" placeholders="1" id="sMgRlcVJ20DVUm7yUbX1-282">
          <mxCell style="whiteSpace=wrap;html=1;" vertex="1" parent="1">
            <mxGeometry x="20" y="19690" width="150" height="30" as="geometry" />
          </mxCell>
        </UserObject>
        <UserObject label="%temperatureLow_temperatureHigh_temperatureMin_temperatureMax%" temperatureLow_temperatureHigh_temperatureMin_temperatureMax="71.51	80.09	68.84	80.09" placeholders="1" id="sMgRlcVJ20DVUm7yUbX1-283">
          <mxCell style="whiteSpace=wrap;html=1;" vertex="1" parent="1">
            <mxGeometry x="20" y="19760" width="150" height="30" as="geometry" />
          </mxCell>
        </UserObject>
        <UserObject label="%temperatureLow_temperatureHigh_temperatureMin_temperatureMax%" temperatureLow_temperatureHigh_temperatureMin_temperatureMax="58.56	75.45	69.66	75.45" placeholders="1" id="sMgRlcVJ20DVUm7yUbX1-284">
          <mxCell style="whiteSpace=wrap;html=1;" vertex="1" parent="1">
            <mxGeometry x="20" y="19830" width="150" height="30" as="geometry" />
          </mxCell>
        </UserObject>
        <UserObject label="%temperatureLow_temperatureHigh_temperatureMin_temperatureMax%" temperatureLow_temperatureHigh_temperatureMin_temperatureMax="47.91	60.88	51.13	69.4" placeholders="1" id="sMgRlcVJ20DVUm7yUbX1-285">
          <mxCell style="whiteSpace=wrap;html=1;" vertex="1" parent="1">
            <mxGeometry x="20" y="19900" width="150" height="30" as="geometry" />
          </mxCell>
        </UserObject>
        <UserObject label="%temperatureLow_temperatureHigh_temperatureMin_temperatureMax%" temperatureLow_temperatureHigh_temperatureMin_temperatureMax="42.9	55.74	47.21	55.74" placeholders="1" id="sMgRlcVJ20DVUm7yUbX1-286">
          <mxCell style="whiteSpace=wrap;html=1;" vertex="1" parent="1">
            <mxGeometry x="20" y="19970" width="150" height="30" as="geometry" />
          </mxCell>
        </UserObject>
        <UserObject label="%temperatureLow_temperatureHigh_temperatureMin_temperatureMax%" temperatureLow_temperatureHigh_temperatureMin_temperatureMax="51.01	57.09	42.9	57.09" placeholders="1" id="sMgRlcVJ20DVUm7yUbX1-287">
          <mxCell style="whiteSpace=wrap;html=1;" vertex="1" parent="1">
            <mxGeometry x="20" y="20040" width="150" height="30" as="geometry" />
          </mxCell>
        </UserObject>
        <UserObject label="%temperatureLow_temperatureHigh_temperatureMin_temperatureMax%" temperatureLow_temperatureHigh_temperatureMin_temperatureMax="46.46	65.53	51.01	67.28" placeholders="1" id="sMgRlcVJ20DVUm7yUbX1-288">
          <mxCell style="whiteSpace=wrap;html=1;" vertex="1" parent="1">
            <mxGeometry x="20" y="20110" width="150" height="30" as="geometry" />
          </mxCell>
        </UserObject>
        <UserObject label="%temperatureLow_temperatureHigh_temperatureMin_temperatureMax%" temperatureLow_temperatureHigh_temperatureMin_temperatureMax="44.39	54.84	46.46	63.49" placeholders="1" id="sMgRlcVJ20DVUm7yUbX1-289">
          <mxCell style="whiteSpace=wrap;html=1;" vertex="1" parent="1">
            <mxGeometry x="20" y="20180" width="150" height="30" as="geometry" />
          </mxCell>
        </UserObject>
        <UserObject label="%temperatureLow_temperatureHigh_temperatureMin_temperatureMax%" temperatureLow_temperatureHigh_temperatureMin_temperatureMax="41.66	61.48	44.39	61.48" placeholders="1" id="sMgRlcVJ20DVUm7yUbX1-290">
          <mxCell style="whiteSpace=wrap;html=1;" vertex="1" parent="1">
            <mxGeometry x="20" y="20250" width="150" height="30" as="geometry" />
          </mxCell>
        </UserObject>
        <UserObject label="%temperatureLow_temperatureHigh_temperatureMin_temperatureMax%" temperatureLow_temperatureHigh_temperatureMin_temperatureMax="37.8	50.74	41.47	50.74" placeholders="1" id="sMgRlcVJ20DVUm7yUbX1-291">
          <mxCell style="whiteSpace=wrap;html=1;" vertex="1" parent="1">
            <mxGeometry x="20" y="20320" width="150" height="30" as="geometry" />
          </mxCell>
        </UserObject>
        <UserObject label="%temperatureLow_temperatureHigh_temperatureMin_temperatureMax%" temperatureLow_temperatureHigh_temperatureMin_temperatureMax="53.29	59.71	37.8	59.71" placeholders="1" id="sMgRlcVJ20DVUm7yUbX1-292">
          <mxCell style="whiteSpace=wrap;html=1;" vertex="1" parent="1">
            <mxGeometry x="20" y="20390" width="150" height="30" as="geometry" />
          </mxCell>
        </UserObject>
        <UserObject label="%temperatureLow_temperatureHigh_temperatureMin_temperatureMax%" temperatureLow_temperatureHigh_temperatureMin_temperatureMax="46.78	62.19	51.55	62.19" placeholders="1" id="sMgRlcVJ20DVUm7yUbX1-293">
          <mxCell style="whiteSpace=wrap;html=1;" vertex="1" parent="1">
            <mxGeometry x="20" y="20460" width="150" height="30" as="geometry" />
          </mxCell>
        </UserObject>
        <UserObject label="%temperatureLow_temperatureHigh_temperatureMin_temperatureMax%" temperatureLow_temperatureHigh_temperatureMin_temperatureMax="35.28	47.78	37.95	51.22" placeholders="1" id="sMgRlcVJ20DVUm7yUbX1-294">
          <mxCell style="whiteSpace=wrap;html=1;" vertex="1" parent="1">
            <mxGeometry x="20" y="20530" width="150" height="30" as="geometry" />
          </mxCell>
        </UserObject>
        <UserObject label="%temperatureLow_temperatureHigh_temperatureMin_temperatureMax%" temperatureLow_temperatureHigh_temperatureMin_temperatureMax="43.74	50.84	35.28	50.84" placeholders="1" id="sMgRlcVJ20DVUm7yUbX1-295">
          <mxCell style="whiteSpace=wrap;html=1;" vertex="1" parent="1">
            <mxGeometry x="20" y="20600" width="150" height="30" as="geometry" />
          </mxCell>
        </UserObject>
        <UserObject label="%temperatureLow_temperatureHigh_temperatureMin_temperatureMax%" temperatureLow_temperatureHigh_temperatureMin_temperatureMax="44.95	64.1	43.74	64.1" placeholders="1" id="sMgRlcVJ20DVUm7yUbX1-296">
          <mxCell style="whiteSpace=wrap;html=1;" vertex="1" parent="1">
            <mxGeometry x="20" y="20670" width="140" height="30" as="geometry" />
          </mxCell>
        </UserObject>
        <UserObject label="%temperatureLow_temperatureHigh_temperatureMin_temperatureMax%" temperatureLow_temperatureHigh_temperatureMin_temperatureMax="39.67	54.22	44.86	54.22" placeholders="1" id="sMgRlcVJ20DVUm7yUbX1-297">
          <mxCell style="whiteSpace=wrap;html=1;" vertex="1" parent="1">
            <mxGeometry x="20" y="20740" width="150" height="30" as="geometry" />
          </mxCell>
        </UserObject>
        <UserObject label="%temperatureLow_temperatureHigh_temperatureMin_temperatureMax%" temperatureLow_temperatureHigh_temperatureMin_temperatureMax="35.43	51.04	39.67	51.04" placeholders="1" id="sMgRlcVJ20DVUm7yUbX1-298">
          <mxCell style="whiteSpace=wrap;html=1;" vertex="1" parent="1">
            <mxGeometry x="20" y="20810" width="150" height="30" as="geometry" />
          </mxCell>
        </UserObject>
        <UserObject label="%temperatureLow_temperatureHigh_temperatureMin_temperatureMax%" temperatureLow_temperatureHigh_temperatureMin_temperatureMax="44.31	48.97	35.43	48.97" placeholders="1" id="sMgRlcVJ20DVUm7yUbX1-299">
          <mxCell style="whiteSpace=wrap;html=1;" vertex="1" parent="1">
            <mxGeometry x="20" y="20880" width="150" height="30" as="geometry" />
          </mxCell>
        </UserObject>
        <UserObject label="%temperatureLow_temperatureHigh_temperatureMin_temperatureMax%" temperatureLow_temperatureHigh_temperatureMin_temperatureMax="45.5	50.1	44.31	50.1" placeholders="1" id="sMgRlcVJ20DVUm7yUbX1-300">
          <mxCell style="whiteSpace=wrap;html=1;" vertex="1" parent="1">
            <mxGeometry x="20" y="20950" width="130" height="30" as="geometry" />
          </mxCell>
        </UserObject>
        <UserObject label="%temperatureLow_temperatureHigh_temperatureMin_temperatureMax%" temperatureLow_temperatureHigh_temperatureMin_temperatureMax="48.56	52.41	45.5	52.41" placeholders="1" id="sMgRlcVJ20DVUm7yUbX1-301">
          <mxCell style="whiteSpace=wrap;html=1;" vertex="1" parent="1">
            <mxGeometry x="20" y="21020" width="150" height="30" as="geometry" />
          </mxCell>
        </UserObject>
      </root>
    </mxGraphModel>
  </diagram>
</mxfile>
